<?xml version="1.0" encoding="UTF-8"?> <!DOCTYPE svg PUBLIC "-//W3C//DTD SVG 1.1//EN" "http://www.w3.org/Graphics/SVG/1.1/DTD/svg11.dtd">
<svg xmlns="http://www.w3.org/2000/svg" height="532" width="485" xmlns:xlink="http://www.w3.org/1999/xlink" version="1.11.1" style="shape-rendering:geometricPrecision; text-rendering:geometricPrecision; image-rendering:optimizeQuality; fill-rule:evenodd; clip-rule:evenodd">
<g style="fill:rgb(255,255,255)">
 <polygon points="0.0,0.0 485.0,0.0 485.0,532.0 0.0,532.0"/>
</g>
<g style="stroke:rgb(0,0,0);fill:rgb(255,255,255)">
 <g transform="translate(242.5,266.0) scale(1.0,-1.0)">
  <g transform="translate(-225.0,261.0)">
   <g style="stroke:rgb(153,153,153);fill:rgb(153,153,153)">
    <g transform="translate(398.015380859375,-16.0)">
     <path d="M 13.999993000000583 -1.3999997666674889e-2 A 14.0 14.0 0 1 0 14.0 0.0"/>
    </g>
   </g>
   <g style="stroke:rgb(0,112,191);stroke-width:2.0">
    <g transform="translate(396.015380859375,-14.0)">
     <line x1="0" y1="0" x2="35.984619140625" y2="-38.0"/>
    </g>
    <g transform="translate(396.015380859375,-14.0)">
     <line x1="0" y1="0" x2="-35.984619140625" y2="-38.0"/>
    </g>
   </g>
   <g style="stroke:rgb(102,178,104);fill:rgb(175,244,175);stroke-width:2.5">
    <g transform="translate(396.015380859375,-14.0)">
     <path d="M 13.999993000000583 -1.3999997666674889e-2 A 14.0 14.0 0 1 0 14.0 0.0"/>
    </g>
   </g>
   <g style="stroke:rgb(204,0,0);fill:rgb(204,0,0);text-anchor:middle;font-family:Arial;font-size:17.5px">
    <g transform="translate(396.015380859375,-20.0)">
     <g transform="scale(1 -1)">
      <text>0</text>
     </g>
    </g>
   </g>
   <g style="stroke:rgb(153,153,153);fill:rgb(153,153,153)">
    <g transform="translate(434.0,-54.0)">
     <path d="M 13.999993000000583 -1.3999997666674889e-2 A 14.0 14.0 0 1 0 14.0 0.0"/>
    </g>
   </g>
   <g style="stroke:rgb(0,112,191);stroke-width:2.0">
    <g transform="translate(432.0,-52.0)">
     <line x1="0" y1="0" x2="9.0" y2="-27.0"/>
    </g>
    <g transform="translate(432.0,-52.0)">
     <line x1="0" y1="0" x2="-9.0" y2="-27.0"/>
    </g>
   </g>
   <g style="stroke:rgb(102,178,104);fill:rgb(175,244,175);stroke-width:2.5">
    <g transform="translate(432.0,-52.0)">
     <path d="M 13.999993000000583 -1.3999997666674889e-2 A 14.0 14.0 0 1 0 14.0 0.0"/>
    </g>
   </g>
   <g style="stroke:rgb(204,0,0);fill:rgb(204,0,0);text-anchor:middle;font-family:Arial;font-size:17.5px">
    <g transform="translate(432.0,-58.0)">
     <g transform="scale(1 -1)">
      <text>4</text>
     </g>
    </g>
   </g>
   <g style="stroke:rgb(153,153,153);fill:rgb(153,153,153);stroke-width:1.5">
    <polygon points="439.0,-83.0 439.0,-77.0 445.0,-77.0 445.0,-83.0"/>
   </g>
   <g style="stroke:rgb(102,178,104);fill:rgb(175,244,175);stroke-width:1.5">
    <polygon points="438.0,-82.0 438.0,-76.0 444.0,-76.0 444.0,-82.0"/>
   </g>
   <g style="stroke:rgb(153,153,153);fill:rgb(153,153,153);stroke-width:1.5">
    <polygon points="421.0,-83.0 421.0,-77.0 427.0,-77.0 427.0,-83.0"/>
   </g>
   <g style="stroke:rgb(102,178,104);fill:rgb(175,244,175);stroke-width:1.5">
    <polygon points="420.0,-82.0 420.0,-76.0 426.0,-76.0 426.0,-82.0"/>
   </g>
   <g style="stroke:rgb(153,153,153);fill:rgb(153,153,153)">
    <g transform="translate(362.03076171875,-54.0)">
     <path d="M 13.999993000000583 -1.3999997666674889e-2 A 14.0 14.0 0 1 0 14.0 0.0"/>
    </g>
   </g>
   <g style="stroke:rgb(0,112,191);stroke-width:2.0">
    <g transform="translate(360.03076171875,-52.0)">
     <line x1="0" y1="0" x2="35.96923828125" y2="-38.0"/>
    </g>
    <g transform="translate(360.03076171875,-52.0)">
     <line x1="0" y1="0" x2="-35.96923828125" y2="-38.0"/>
    </g>
   </g>
   <g style="stroke:rgb(102,178,104);fill:rgb(175,244,175);stroke-width:2.5">
    <g transform="translate(360.03076171875,-52.0)">
     <path d="M 13.999993000000583 -1.3999997666674889e-2 A 14.0 14.0 0 1 0 14.0 0.0"/>
    </g>
   </g>
   <g style="stroke:rgb(204,0,0);fill:rgb(204,0,0);text-anchor:middle;font-family:Arial;font-size:17.5px">
    <g transform="translate(360.03076171875,-58.0)">
     <g transform="scale(1 -1)">
      <text>0</text>
     </g>
    </g>
   </g>
   <g style="stroke:rgb(153,153,153);fill:rgb(153,153,153)">
    <g transform="translate(398.0,-92.0)">
     <path d="M 13.999993000000583 -1.3999997666674889e-2 A 14.0 14.0 0 1 0 14.0 0.0"/>
    </g>
   </g>
   <g style="stroke:rgb(0,112,191);stroke-width:2.0">
    <g transform="translate(396.0,-90.0)">
     <line x1="0" y1="0" x2="9.0" y2="-27.0"/>
    </g>
    <g transform="translate(396.0,-90.0)">
     <line x1="0" y1="0" x2="-9.0" y2="-27.0"/>
    </g>
   </g>
   <g style="stroke:rgb(102,178,104);fill:rgb(175,244,175);stroke-width:2.5">
    <g transform="translate(396.0,-90.0)">
     <path d="M 13.999993000000583 -1.3999997666674889e-2 A 14.0 14.0 0 1 0 14.0 0.0"/>
    </g>
   </g>
   <g style="stroke:rgb(204,0,0);fill:rgb(204,0,0);text-anchor:middle;font-family:Arial;font-size:17.5px">
    <g transform="translate(396.0,-96.0)">
     <g transform="scale(1 -1)">
      <text>6</text>
     </g>
    </g>
   </g>
   <g style="stroke:rgb(153,153,153);fill:rgb(153,153,153);stroke-width:1.5">
    <polygon points="403.0,-121.0 403.0,-115.0 409.0,-115.0 409.0,-121.0"/>
   </g>
   <g style="stroke:rgb(102,178,104);fill:rgb(175,244,175);stroke-width:1.5">
    <polygon points="402.0,-120.0 402.0,-114.0 408.0,-114.0 408.0,-120.0"/>
   </g>
   <g style="stroke:rgb(153,153,153);fill:rgb(153,153,153);stroke-width:1.5">
    <polygon points="385.0,-121.0 385.0,-115.0 391.0,-115.0 391.0,-121.0"/>
   </g>
   <g style="stroke:rgb(102,178,104);fill:rgb(175,244,175);stroke-width:1.5">
    <polygon points="384.0,-120.0 384.0,-114.0 390.0,-114.0 390.0,-120.0"/>
   </g>
   <g style="stroke:rgb(153,153,153);fill:rgb(153,153,153)">
    <g transform="translate(326.0615234375,-92.0)">
     <path d="M 13.999993000000583 -1.3999997666674889e-2 A 14.0 14.0 0 1 0 14.0 0.0"/>
    </g>
   </g>
   <g style="stroke:rgb(0,112,191);stroke-width:2.0">
    <g transform="translate(324.0615234375,-90.0)">
     <line x1="0" y1="0" x2="35.9384765625" y2="-38.0"/>
    </g>
    <g transform="translate(324.0615234375,-90.0)">
     <line x1="0" y1="0" x2="-35.9384765625" y2="-38.0"/>
    </g>
   </g>
   <g style="stroke:rgb(102,178,104);fill:rgb(175,244,175);stroke-width:2.5">
    <g transform="translate(324.0615234375,-90.0)">
     <path d="M 13.999993000000583 -1.3999997666674889e-2 A 14.0 14.0 0 1 0 14.0 0.0"/>
    </g>
   </g>
   <g style="stroke:rgb(204,0,0);fill:rgb(204,0,0);text-anchor:middle;font-family:Arial;font-size:17.5px">
    <g transform="translate(324.0615234375,-96.0)">
     <g transform="scale(1 -1)">
      <text>1</text>
     </g>
    </g>
   </g>
   <g style="stroke:rgb(153,153,153);fill:rgb(153,153,153)">
    <g transform="translate(362.0,-130.0)">
     <path d="M 13.999993000000583 -1.3999997666674889e-2 A 14.0 14.0 0 1 0 14.0 0.0"/>
    </g>
   </g>
   <g style="stroke:rgb(0,112,191);stroke-width:2.0">
    <g transform="translate(360.0,-128.0)">
     <line x1="0" y1="0" x2="9.0" y2="-27.0"/>
    </g>
    <g transform="translate(360.0,-128.0)">
     <line x1="0" y1="0" x2="-9.0" y2="-27.0"/>
    </g>
   </g>
   <g style="stroke:rgb(102,178,104);fill:rgb(175,244,175);stroke-width:2.5">
    <g transform="translate(360.0,-128.0)">
     <path d="M 13.999993000000583 -1.3999997666674889e-2 A 14.0 14.0 0 1 0 14.0 0.0"/>
    </g>
   </g>
   <g style="stroke:rgb(204,0,0);fill:rgb(204,0,0);text-anchor:middle;font-family:Arial;font-size:17.5px">
    <g transform="translate(360.0,-134.0)">
     <g transform="scale(1 -1)">
      <text>4</text>
     </g>
    </g>
   </g>
   <g style="stroke:rgb(153,153,153);fill:rgb(153,153,153);stroke-width:1.5">
    <polygon points="367.0,-159.0 367.0,-153.0 373.0,-153.0 373.0,-159.0"/>
   </g>
   <g style="stroke:rgb(102,178,104);fill:rgb(175,244,175);stroke-width:1.5">
    <polygon points="366.0,-158.0 366.0,-152.0 372.0,-152.0 372.0,-158.0"/>
   </g>
   <g style="stroke:rgb(153,153,153);fill:rgb(153,153,153);stroke-width:1.5">
    <polygon points="349.0,-159.0 349.0,-153.0 355.0,-153.0 355.0,-159.0"/>
   </g>
   <g style="stroke:rgb(102,178,104);fill:rgb(175,244,175);stroke-width:1.5">
    <polygon points="348.0,-158.0 348.0,-152.0 354.0,-152.0 354.0,-158.0"/>
   </g>
   <g style="stroke:rgb(153,153,153);fill:rgb(153,153,153)">
    <g transform="translate(290.123046875,-130.0)">
     <path d="M 13.999993000000583 -1.3999997666674889e-2 A 14.0 14.0 0 1 0 14.0 0.0"/>
    </g>
   </g>
   <g style="stroke:rgb(0,112,191);stroke-width:2.0">
    <g transform="translate(288.123046875,-128.0)">
     <line x1="0" y1="0" x2="35.876953125" y2="-38.0"/>
    </g>
    <g transform="translate(288.123046875,-128.0)">
     <line x1="0" y1="0" x2="-35.876953125" y2="-38.0"/>
    </g>
   </g>
   <g style="stroke:rgb(102,178,104);fill:rgb(175,244,175);stroke-width:2.5">
    <g transform="translate(288.123046875,-128.0)">
     <path d="M 13.999993000000583 -1.3999997666674889e-2 A 14.0 14.0 0 1 0 14.0 0.0"/>
    </g>
   </g>
   <g style="stroke:rgb(204,0,0);fill:rgb(204,0,0);text-anchor:middle;font-family:Arial;font-size:17.5px">
    <g transform="translate(288.123046875,-134.0)">
     <g transform="scale(1 -1)">
      <text>1</text>
     </g>
    </g>
   </g>
   <g style="stroke:rgb(153,153,153);fill:rgb(153,153,153)">
    <g transform="translate(326.0,-168.0)">
     <path d="M 13.999993000000583 -1.3999997666674889e-2 A 14.0 14.0 0 1 0 14.0 0.0"/>
    </g>
   </g>
   <g style="stroke:rgb(0,112,191);stroke-width:2.0">
    <g transform="translate(324.0,-166.0)">
     <line x1="0" y1="0" x2="9.0" y2="-27.0"/>
    </g>
    <g transform="translate(324.0,-166.0)">
     <line x1="0" y1="0" x2="-9.0" y2="-27.0"/>
    </g>
   </g>
   <g style="stroke:rgb(102,178,104);fill:rgb(175,244,175);stroke-width:2.5">
    <g transform="translate(324.0,-166.0)">
     <path d="M 13.999993000000583 -1.3999997666674889e-2 A 14.0 14.0 0 1 0 14.0 0.0"/>
    </g>
   </g>
   <g style="stroke:rgb(204,0,0);fill:rgb(204,0,0);text-anchor:middle;font-family:Arial;font-size:17.5px">
    <g transform="translate(324.0,-172.0)">
     <g transform="scale(1 -1)">
      <text>1</text>
     </g>
    </g>
   </g>
   <g style="stroke:rgb(153,153,153);fill:rgb(153,153,153);stroke-width:1.5">
    <polygon points="331.0,-197.0 331.0,-191.0 337.0,-191.0 337.0,-197.0"/>
   </g>
   <g style="stroke:rgb(102,178,104);fill:rgb(175,244,175);stroke-width:1.5">
    <polygon points="330.0,-196.0 330.0,-190.0 336.0,-190.0 336.0,-196.0"/>
   </g>
   <g style="stroke:rgb(153,153,153);fill:rgb(153,153,153);stroke-width:1.5">
    <polygon points="313.0,-197.0 313.0,-191.0 319.0,-191.0 319.0,-197.0"/>
   </g>
   <g style="stroke:rgb(102,178,104);fill:rgb(175,244,175);stroke-width:1.5">
    <polygon points="312.0,-196.0 312.0,-190.0 318.0,-190.0 318.0,-196.0"/>
   </g>
   <g style="stroke:rgb(153,153,153);fill:rgb(153,153,153)">
    <g transform="translate(254.24609375,-168.0)">
     <path d="M 13.999993000000583 -1.3999997666674889e-2 A 14.0 14.0 0 1 0 14.0 0.0"/>
    </g>
   </g>
   <g style="stroke:rgb(0,112,191);stroke-width:2.0">
    <g transform="translate(252.24609375,-166.0)">
     <line x1="0" y1="0" x2="35.75390625" y2="-38.0"/>
    </g>
    <g transform="translate(252.24609375,-166.0)">
     <line x1="0" y1="0" x2="-35.75390625" y2="-38.0"/>
    </g>
   </g>
   <g style="stroke:rgb(102,178,104);fill:rgb(175,244,175);stroke-width:2.5">
    <g transform="translate(252.24609375,-166.0)">
     <path d="M 13.999993000000583 -1.3999997666674889e-2 A 14.0 14.0 0 1 0 14.0 0.0"/>
    </g>
   </g>
   <g style="stroke:rgb(204,0,0);fill:rgb(204,0,0);text-anchor:middle;font-family:Arial;font-size:17.5px">
    <g transform="translate(252.24609375,-172.0)">
     <g transform="scale(1 -1)">
      <text>1</text>
     </g>
    </g>
   </g>
   <g style="stroke:rgb(153,153,153);fill:rgb(153,153,153)">
    <g transform="translate(290.0,-206.0)">
     <path d="M 13.999993000000583 -1.3999997666674889e-2 A 14.0 14.0 0 1 0 14.0 0.0"/>
    </g>
   </g>
   <g style="stroke:rgb(0,112,191);stroke-width:2.0">
    <g transform="translate(288.0,-204.0)">
     <line x1="0" y1="0" x2="9.0" y2="-27.0"/>
    </g>
    <g transform="translate(288.0,-204.0)">
     <line x1="0" y1="0" x2="-9.0" y2="-27.0"/>
    </g>
   </g>
   <g style="stroke:rgb(102,178,104);fill:rgb(175,244,175);stroke-width:2.5">
    <g transform="translate(288.0,-204.0)">
     <path d="M 13.999993000000583 -1.3999997666674889e-2 A 14.0 14.0 0 1 0 14.0 0.0"/>
    </g>
   </g>
   <g style="stroke:rgb(204,0,0);fill:rgb(204,0,0);text-anchor:middle;font-family:Arial;font-size:17.5px">
    <g transform="translate(288.0,-210.0)">
     <g transform="scale(1 -1)">
      <text>3</text>
     </g>
    </g>
   </g>
   <g style="stroke:rgb(153,153,153);fill:rgb(153,153,153);stroke-width:1.5">
    <polygon points="295.0,-235.0 295.0,-229.0 301.0,-229.0 301.0,-235.0"/>
   </g>
   <g style="stroke:rgb(102,178,104);fill:rgb(175,244,175);stroke-width:1.5">
    <polygon points="294.0,-234.0 294.0,-228.0 300.0,-228.0 300.0,-234.0"/>
   </g>
   <g style="stroke:rgb(153,153,153);fill:rgb(153,153,153);stroke-width:1.5">
    <polygon points="277.0,-235.0 277.0,-229.0 283.0,-229.0 283.0,-235.0"/>
   </g>
   <g style="stroke:rgb(102,178,104);fill:rgb(175,244,175);stroke-width:1.5">
    <polygon points="276.0,-234.0 276.0,-228.0 282.0,-228.0 282.0,-234.0"/>
   </g>
   <g style="stroke:rgb(153,153,153);fill:rgb(153,153,153)">
    <g transform="translate(218.4921875,-206.0)">
     <path d="M 13.999993000000583 -1.3999997666674889e-2 A 14.0 14.0 0 1 0 14.0 0.0"/>
    </g>
   </g>
   <g style="stroke:rgb(0,112,191);stroke-width:2.0">
    <g transform="translate(216.4921875,-204.0)">
     <line x1="0" y1="0" x2="35.5078125" y2="-38.0"/>
    </g>
    <g transform="translate(216.4921875,-204.0)">
     <line x1="0" y1="0" x2="-35.5078125" y2="-38.0"/>
    </g>
   </g>
   <g style="stroke:rgb(102,178,104);fill:rgb(175,244,175);stroke-width:2.5">
    <g transform="translate(216.4921875,-204.0)">
     <path d="M 13.999993000000583 -1.3999997666674889e-2 A 14.0 14.0 0 1 0 14.0 0.0"/>
    </g>
   </g>
   <g style="stroke:rgb(204,0,0);fill:rgb(204,0,0);text-anchor:middle;font-family:Arial;font-size:17.5px">
    <g transform="translate(216.4921875,-210.0)">
     <g transform="scale(1 -1)">
      <text>1</text>
     </g>
    </g>
   </g>
   <g style="stroke:rgb(153,153,153);fill:rgb(153,153,153)">
    <g transform="translate(254.0,-244.0)">
     <path d="M 13.999993000000583 -1.3999997666674889e-2 A 14.0 14.0 0 1 0 14.0 0.0"/>
    </g>
   </g>
   <g style="stroke:rgb(0,112,191);stroke-width:2.0">
    <g transform="translate(252.0,-242.0)">
     <line x1="0" y1="0" x2="9.0" y2="-27.0"/>
    </g>
    <g transform="translate(252.0,-242.0)">
     <line x1="0" y1="0" x2="-9.0" y2="-27.0"/>
    </g>
   </g>
   <g style="stroke:rgb(102,178,104);fill:rgb(175,244,175);stroke-width:2.5">
    <g transform="translate(252.0,-242.0)">
     <path d="M 13.999993000000583 -1.3999997666674889e-2 A 14.0 14.0 0 1 0 14.0 0.0"/>
    </g>
   </g>
   <g style="stroke:rgb(204,0,0);fill:rgb(204,0,0);text-anchor:middle;font-family:Arial;font-size:17.5px">
    <g transform="translate(252.0,-248.0)">
     <g transform="scale(1 -1)">
      <text>5</text>
     </g>
    </g>
   </g>
   <g style="stroke:rgb(153,153,153);fill:rgb(153,153,153);stroke-width:1.5">
    <polygon points="259.0,-273.0 259.0,-267.0 265.0,-267.0 265.0,-273.0"/>
   </g>
   <g style="stroke:rgb(102,178,104);fill:rgb(175,244,175);stroke-width:1.5">
    <polygon points="258.0,-272.0 258.0,-266.0 264.0,-266.0 264.0,-272.0"/>
   </g>
   <g style="stroke:rgb(153,153,153);fill:rgb(153,153,153);stroke-width:1.5">
    <polygon points="241.0,-273.0 241.0,-267.0 247.0,-267.0 247.0,-273.0"/>
   </g>
   <g style="stroke:rgb(102,178,104);fill:rgb(175,244,175);stroke-width:1.5">
    <polygon points="240.0,-272.0 240.0,-266.0 246.0,-266.0 246.0,-272.0"/>
   </g>
   <g style="stroke:rgb(153,153,153);fill:rgb(153,153,153)">
    <g transform="translate(182.984375,-244.0)">
     <path d="M 13.999993000000583 -1.3999997666674889e-2 A 14.0 14.0 0 1 0 14.0 0.0"/>
    </g>
   </g>
   <g style="stroke:rgb(0,112,191);stroke-width:2.0">
    <g transform="translate(180.984375,-242.0)">
     <line x1="0" y1="0" x2="35.015625" y2="-38.0"/>
    </g>
    <g transform="translate(180.984375,-242.0)">
     <line x1="0" y1="0" x2="-35.015625" y2="-38.0"/>
    </g>
   </g>
   <g style="stroke:rgb(102,178,104);fill:rgb(175,244,175);stroke-width:2.5">
    <g transform="translate(180.984375,-242.0)">
     <path d="M 13.999993000000583 -1.3999997666674889e-2 A 14.0 14.0 0 1 0 14.0 0.0"/>
    </g>
   </g>
   <g style="stroke:rgb(204,0,0);fill:rgb(204,0,0);text-anchor:middle;font-family:Arial;font-size:17.5px">
    <g transform="translate(180.984375,-248.0)">
     <g transform="scale(1 -1)">
      <text>1</text>
     </g>
    </g>
   </g>
   <g style="stroke:rgb(153,153,153);fill:rgb(153,153,153)">
    <g transform="translate(218.0,-282.0)">
     <path d="M 13.999993000000583 -1.3999997666674889e-2 A 14.0 14.0 0 1 0 14.0 0.0"/>
    </g>
   </g>
   <g style="stroke:rgb(0,112,191);stroke-width:2.0">
    <g transform="translate(216.0,-280.0)">
     <line x1="0" y1="0" x2="9.0" y2="-27.0"/>
    </g>
    <g transform="translate(216.0,-280.0)">
     <line x1="0" y1="0" x2="-9.0" y2="-27.0"/>
    </g>
   </g>
   <g style="stroke:rgb(102,178,104);fill:rgb(175,244,175);stroke-width:2.5">
    <g transform="translate(216.0,-280.0)">
     <path d="M 13.999993000000583 -1.3999997666674889e-2 A 14.0 14.0 0 1 0 14.0 0.0"/>
    </g>
   </g>
   <g style="stroke:rgb(204,0,0);fill:rgb(204,0,0);text-anchor:middle;font-family:Arial;font-size:17.5px">
    <g transform="translate(216.0,-286.0)">
     <g transform="scale(1 -1)">
      <text>8</text>
     </g>
    </g>
   </g>
   <g style="stroke:rgb(153,153,153);fill:rgb(153,153,153);stroke-width:1.5">
    <polygon points="223.0,-311.0 223.0,-305.0 229.0,-305.0 229.0,-311.0"/>
   </g>
   <g style="stroke:rgb(102,178,104);fill:rgb(175,244,175);stroke-width:1.5">
    <polygon points="222.0,-310.0 222.0,-304.0 228.0,-304.0 228.0,-310.0"/>
   </g>
   <g style="stroke:rgb(153,153,153);fill:rgb(153,153,153);stroke-width:1.5">
    <polygon points="205.0,-311.0 205.0,-305.0 211.0,-305.0 211.0,-311.0"/>
   </g>
   <g style="stroke:rgb(102,178,104);fill:rgb(175,244,175);stroke-width:1.5">
    <polygon points="204.0,-310.0 204.0,-304.0 210.0,-304.0 210.0,-310.0"/>
   </g>
   <g style="stroke:rgb(153,153,153);fill:rgb(153,153,153)">
    <g transform="translate(147.96875,-282.0)">
     <path d="M 13.999993000000583 -1.3999997666674889e-2 A 14.0 14.0 0 1 0 14.0 0.0"/>
    </g>
   </g>
   <g style="stroke:rgb(0,112,191);stroke-width:2.0">
    <g transform="translate(145.96875,-280.0)">
     <line x1="0" y1="0" x2="34.03125" y2="-38.0"/>
    </g>
    <g transform="translate(145.96875,-280.0)">
     <line x1="0" y1="0" x2="-34.03125" y2="-38.0"/>
    </g>
   </g>
   <g style="stroke:rgb(102,178,104);fill:rgb(175,244,175);stroke-width:2.5">
    <g transform="translate(145.96875,-280.0)">
     <path d="M 13.999993000000583 -1.3999997666674889e-2 A 14.0 14.0 0 1 0 14.0 0.0"/>
    </g>
   </g>
   <g style="stroke:rgb(204,0,0);fill:rgb(204,0,0);text-anchor:middle;font-family:Arial;font-size:17.5px">
    <g transform="translate(145.96875,-286.0)">
     <g transform="scale(1 -1)">
      <text>3</text>
     </g>
    </g>
   </g>
   <g style="stroke:rgb(153,153,153);fill:rgb(153,153,153)">
    <g transform="translate(182.0,-320.0)">
     <path d="M 13.999993000000583 -1.3999997666674889e-2 A 14.0 14.0 0 1 0 14.0 0.0"/>
    </g>
   </g>
   <g style="stroke:rgb(0,112,191);stroke-width:2.0">
    <g transform="translate(180.0,-318.0)">
     <line x1="0" y1="0" x2="9.0" y2="-27.0"/>
    </g>
    <g transform="translate(180.0,-318.0)">
     <line x1="0" y1="0" x2="-9.0" y2="-27.0"/>
    </g>
   </g>
   <g style="stroke:rgb(102,178,104);fill:rgb(175,244,175);stroke-width:2.5">
    <g transform="translate(180.0,-318.0)">
     <path d="M 13.999993000000583 -1.3999997666674889e-2 A 14.0 14.0 0 1 0 14.0 0.0"/>
    </g>
   </g>
   <g style="stroke:rgb(204,0,0);fill:rgb(204,0,0);text-anchor:middle;font-family:Arial;font-size:17.5px">
    <g transform="translate(180.0,-324.0)">
     <g transform="scale(1 -1)">
      <text>3</text>
     </g>
    </g>
   </g>
   <g style="stroke:rgb(153,153,153);fill:rgb(153,153,153);stroke-width:1.5">
    <polygon points="187.0,-349.0 187.0,-343.0 193.0,-343.0 193.0,-349.0"/>
   </g>
   <g style="stroke:rgb(102,178,104);fill:rgb(175,244,175);stroke-width:1.5">
    <polygon points="186.0,-348.0 186.0,-342.0 192.0,-342.0 192.0,-348.0"/>
   </g>
   <g style="stroke:rgb(153,153,153);fill:rgb(153,153,153);stroke-width:1.5">
    <polygon points="169.0,-349.0 169.0,-343.0 175.0,-343.0 175.0,-349.0"/>
   </g>
   <g style="stroke:rgb(102,178,104);fill:rgb(175,244,175);stroke-width:1.5">
    <polygon points="168.0,-348.0 168.0,-342.0 174.0,-342.0 174.0,-348.0"/>
   </g>
   <g style="stroke:rgb(153,153,153);fill:rgb(153,153,153)">
    <g transform="translate(113.9375,-320.0)">
     <path d="M 13.999993000000583 -1.3999997666674889e-2 A 14.0 14.0 0 1 0 14.0 0.0"/>
    </g>
   </g>
   <g style="stroke:rgb(0,112,191);stroke-width:2.0">
    <g transform="translate(111.9375,-318.0)">
     <line x1="0" y1="0" x2="32.0625" y2="-38.0"/>
    </g>
    <g transform="translate(111.9375,-318.0)">
     <line x1="0" y1="0" x2="-32.0625" y2="-38.0"/>
    </g>
   </g>
   <g style="stroke:rgb(102,178,104);fill:rgb(175,244,175);stroke-width:2.5">
    <g transform="translate(111.9375,-318.0)">
     <path d="M 13.999993000000583 -1.3999997666674889e-2 A 14.0 14.0 0 1 0 14.0 0.0"/>
    </g>
   </g>
   <g style="stroke:rgb(204,0,0);fill:rgb(204,0,0);text-anchor:middle;font-family:Arial;font-size:17.5px">
    <g transform="translate(111.9375,-324.0)">
     <g transform="scale(1 -1)">
      <text>3</text>
     </g>
    </g>
   </g>
   <g style="stroke:rgb(153,153,153);fill:rgb(153,153,153)">
    <g transform="translate(146.0,-358.0)">
     <path d="M 13.999993000000583 -1.3999997666674889e-2 A 14.0 14.0 0 1 0 14.0 0.0"/>
    </g>
   </g>
   <g style="stroke:rgb(0,112,191);stroke-width:2.0">
    <g transform="translate(144.0,-356.0)">
     <line x1="0" y1="0" x2="9.0" y2="-27.0"/>
    </g>
    <g transform="translate(144.0,-356.0)">
     <line x1="0" y1="0" x2="-9.0" y2="-27.0"/>
    </g>
   </g>
   <g style="stroke:rgb(102,178,104);fill:rgb(175,244,175);stroke-width:2.5">
    <g transform="translate(144.0,-356.0)">
     <path d="M 13.999993000000583 -1.3999997666674889e-2 A 14.0 14.0 0 1 0 14.0 0.0"/>
    </g>
   </g>
   <g style="stroke:rgb(204,0,0);fill:rgb(204,0,0);text-anchor:middle;font-family:Arial;font-size:17.5px">
    <g transform="translate(144.0,-362.0)">
     <g transform="scale(1 -1)">
      <text>4</text>
     </g>
    </g>
   </g>
   <g style="stroke:rgb(153,153,153);fill:rgb(153,153,153);stroke-width:1.5">
    <polygon points="151.0,-387.0 151.0,-381.0 157.0,-381.0 157.0,-387.0"/>
   </g>
   <g style="stroke:rgb(102,178,104);fill:rgb(175,244,175);stroke-width:1.5">
    <polygon points="150.0,-386.0 150.0,-380.0 156.0,-380.0 156.0,-386.0"/>
   </g>
   <g style="stroke:rgb(153,153,153);fill:rgb(153,153,153);stroke-width:1.5">
    <polygon points="133.0,-387.0 133.0,-381.0 139.0,-381.0 139.0,-387.0"/>
   </g>
   <g style="stroke:rgb(102,178,104);fill:rgb(175,244,175);stroke-width:1.5">
    <polygon points="132.0,-386.0 132.0,-380.0 138.0,-380.0 138.0,-386.0"/>
   </g>
   <g style="stroke:rgb(153,153,153);fill:rgb(153,153,153)">
    <g transform="translate(81.875,-358.0)">
     <path d="M 13.999993000000583 -1.3999997666674889e-2 A 14.0 14.0 0 1 0 14.0 0.0"/>
    </g>
   </g>
   <g style="stroke:rgb(0,112,191);stroke-width:2.0">
    <g transform="translate(79.875,-356.0)">
     <line x1="0" y1="0" x2="28.125" y2="-38.0"/>
    </g>
    <g transform="translate(79.875,-356.0)">
     <line x1="0" y1="0" x2="-28.125" y2="-38.0"/>
    </g>
   </g>
   <g style="stroke:rgb(102,178,104);fill:rgb(175,244,175);stroke-width:2.5">
    <g transform="translate(79.875,-356.0)">
     <path d="M 13.999993000000583 -1.3999997666674889e-2 A 14.0 14.0 0 1 0 14.0 0.0"/>
    </g>
   </g>
   <g style="stroke:rgb(204,0,0);fill:rgb(204,0,0);text-anchor:middle;font-family:Arial;font-size:17.5px">
    <g transform="translate(79.875,-362.0)">
     <g transform="scale(1 -1)">
      <text>3</text>
     </g>
    </g>
   </g>
   <g style="stroke:rgb(153,153,153);fill:rgb(153,153,153)">
    <g transform="translate(110.0,-396.0)">
     <path d="M 13.999993000000583 -1.3999997666674889e-2 A 14.0 14.0 0 1 0 14.0 0.0"/>
    </g>
   </g>
   <g style="stroke:rgb(0,112,191);stroke-width:2.0">
    <g transform="translate(108.0,-394.0)">
     <line x1="0" y1="0" x2="9.0" y2="-27.0"/>
    </g>
    <g transform="translate(108.0,-394.0)">
     <line x1="0" y1="0" x2="-9.0" y2="-27.0"/>
    </g>
   </g>
   <g style="stroke:rgb(102,178,104);fill:rgb(175,244,175);stroke-width:2.5">
    <g transform="translate(108.0,-394.0)">
     <path d="M 13.999993000000583 -1.3999997666674889e-2 A 14.0 14.0 0 1 0 14.0 0.0"/>
    </g>
   </g>
   <g style="stroke:rgb(204,0,0);fill:rgb(204,0,0);text-anchor:middle;font-family:Arial;font-size:17.5px">
    <g transform="translate(108.0,-400.0)">
     <g transform="scale(1 -1)">
      <text>4</text>
     </g>
    </g>
   </g>
   <g style="stroke:rgb(153,153,153);fill:rgb(153,153,153);stroke-width:1.5">
    <polygon points="115.0,-425.0 115.0,-419.0 121.0,-419.0 121.0,-425.0"/>
   </g>
   <g style="stroke:rgb(102,178,104);fill:rgb(175,244,175);stroke-width:1.5">
    <polygon points="114.0,-424.0 114.0,-418.0 120.0,-418.0 120.0,-424.0"/>
   </g>
   <g style="stroke:rgb(153,153,153);fill:rgb(153,153,153);stroke-width:1.5">
    <polygon points="97.0,-425.0 97.0,-419.0 103.0,-419.0 103.0,-425.0"/>
   </g>
   <g style="stroke:rgb(102,178,104);fill:rgb(175,244,175);stroke-width:1.5">
    <polygon points="96.0,-424.0 96.0,-418.0 102.0,-418.0 102.0,-424.0"/>
   </g>
   <g style="stroke:rgb(153,153,153);fill:rgb(153,153,153)">
    <g transform="translate(53.75,-396.0)">
     <path d="M 13.999993000000583 -1.3999997666674889e-2 A 14.0 14.0 0 1 0 14.0 0.0"/>
    </g>
   </g>
   <g style="stroke:rgb(0,112,191);stroke-width:2.0">
    <g transform="translate(51.75,-394.0)">
     <line x1="0" y1="0" x2="20.25" y2="-38.0"/>
    </g>
    <g transform="translate(51.75,-394.0)">
     <line x1="0" y1="0" x2="-20.25" y2="-38.0"/>
    </g>
   </g>
   <g style="stroke:rgb(102,178,104);fill:rgb(175,244,175);stroke-width:2.5">
    <g transform="translate(51.75,-394.0)">
     <path d="M 13.999993000000583 -1.3999997666674889e-2 A 14.0 14.0 0 1 0 14.0 0.0"/>
    </g>
   </g>
   <g style="stroke:rgb(204,0,0);fill:rgb(204,0,0);text-anchor:middle;font-family:Arial;font-size:17.5px">
    <g transform="translate(51.75,-400.0)">
     <g transform="scale(1 -1)">
      <text>4</text>
     </g>
    </g>
   </g>
   <g style="stroke:rgb(153,153,153);fill:rgb(153,153,153)">
    <g transform="translate(74.0,-434.0)">
     <path d="M 13.999993000000583 -1.3999997666674889e-2 A 14.0 14.0 0 1 0 14.0 0.0"/>
    </g>
   </g>
   <g style="stroke:rgb(0,112,191);stroke-width:2.0">
    <g transform="translate(72.0,-432.0)">
     <line x1="0" y1="0" x2="9.0" y2="-27.0"/>
    </g>
    <g transform="translate(72.0,-432.0)">
     <line x1="0" y1="0" x2="-9.0" y2="-27.0"/>
    </g>
   </g>
   <g style="stroke:rgb(102,178,104);fill:rgb(175,244,175);stroke-width:2.5">
    <g transform="translate(72.0,-432.0)">
     <path d="M 13.999993000000583 -1.3999997666674889e-2 A 14.0 14.0 0 1 0 14.0 0.0"/>
    </g>
   </g>
   <g style="stroke:rgb(204,0,0);fill:rgb(204,0,0);text-anchor:middle;font-family:Arial;font-size:17.5px">
    <g transform="translate(72.0,-438.0)">
     <g transform="scale(1 -1)">
      <text>5</text>
     </g>
    </g>
   </g>
   <g style="stroke:rgb(153,153,153);fill:rgb(153,153,153);stroke-width:1.5">
    <polygon points="79.0,-463.0 79.0,-457.0 85.0,-457.0 85.0,-463.0"/>
   </g>
   <g style="stroke:rgb(102,178,104);fill:rgb(175,244,175);stroke-width:1.5">
    <polygon points="78.0,-462.0 78.0,-456.0 84.0,-456.0 84.0,-462.0"/>
   </g>
   <g style="stroke:rgb(153,153,153);fill:rgb(153,153,153);stroke-width:1.5">
    <polygon points="61.0,-463.0 61.0,-457.0 67.0,-457.0 67.0,-463.0"/>
   </g>
   <g style="stroke:rgb(102,178,104);fill:rgb(175,244,175);stroke-width:1.5">
    <polygon points="60.0,-462.0 60.0,-456.0 66.0,-456.0 66.0,-462.0"/>
   </g>
   <g style="stroke:rgb(153,153,153);fill:rgb(153,153,153)">
    <g transform="translate(33.5,-434.0)">
     <path d="M 13.999993000000583 -1.3999997666674889e-2 A 14.0 14.0 0 1 0 14.0 0.0"/>
    </g>
   </g>
   <g style="stroke:rgb(0,112,191);stroke-width:2.0">
    <g transform="translate(31.5,-432.0)">
     <line x1="0" y1="0" x2="13.5" y2="-27.0"/>
    </g>
    <g transform="translate(31.5,-432.0)">
     <line x1="0" y1="0" x2="-13.5" y2="-38.0"/>
    </g>
   </g>
   <g style="stroke:rgb(102,178,104);fill:rgb(175,244,175);stroke-width:2.5">
    <g transform="translate(31.5,-432.0)">
     <path d="M 13.999993000000583 -1.3999997666674889e-2 A 14.0 14.0 0 1 0 14.0 0.0"/>
    </g>
   </g>
   <g style="stroke:rgb(204,0,0);fill:rgb(204,0,0);text-anchor:middle;font-family:Arial;font-size:17.5px">
    <g transform="translate(31.5,-438.0)">
     <g transform="scale(1 -1)">
      <text>5</text>
     </g>
    </g>
   </g>
   <g style="stroke:rgb(153,153,153);fill:rgb(153,153,153);stroke-width:1.5">
    <polygon points="43.0,-463.0 43.0,-457.0 49.0,-457.0 49.0,-463.0"/>
   </g>
   <g style="stroke:rgb(102,178,104);fill:rgb(175,244,175);stroke-width:1.5">
    <polygon points="42.0,-462.0 42.0,-456.0 48.0,-456.0 48.0,-462.0"/>
   </g>
   <g style="stroke:rgb(153,153,153);fill:rgb(153,153,153)">
    <g transform="translate(20.0,-472.0)">
     <path d="M 13.999993000000583 -1.3999997666674889e-2 A 14.0 14.0 0 1 0 14.0 0.0"/>
    </g>
   </g>
   <g style="stroke:rgb(0,112,191);stroke-width:2.0">
    <g transform="translate(18.0,-470.0)">
     <line x1="0" y1="0" x2="9.0" y2="-27.0"/>
    </g>
    <g transform="translate(18.0,-470.0)">
     <line x1="0" y1="0" x2="-9.0" y2="-27.0"/>
    </g>
   </g>
   <g style="stroke:rgb(102,178,104);fill:rgb(175,244,175);stroke-width:2.5">
    <g transform="translate(18.0,-470.0)">
     <path d="M 13.999993000000583 -1.3999997666674889e-2 A 14.0 14.0 0 1 0 14.0 0.0"/>
    </g>
   </g>
   <g style="stroke:rgb(204,0,0);fill:rgb(204,0,0);text-anchor:middle;font-family:Arial;font-size:17.5px">
    <g transform="translate(18.0,-476.0)">
     <g transform="scale(1 -1)">
      <text>8</text>
     </g>
    </g>
   </g>
   <g style="stroke:rgb(153,153,153);fill:rgb(153,153,153);stroke-width:1.5">
    <polygon points="25.0,-501.0 25.0,-495.0 31.0,-495.0 31.0,-501.0"/>
   </g>
   <g style="stroke:rgb(102,178,104);fill:rgb(175,244,175);stroke-width:1.5">
    <polygon points="24.0,-500.0 24.0,-494.0 30.0,-494.0 30.0,-500.0"/>
   </g>
   <g style="stroke:rgb(153,153,153);fill:rgb(153,153,153);stroke-width:1.5">
    <polygon points="7.0,-501.0 7.0,-495.0 13.0,-495.0 13.0,-501.0"/>
   </g>
   <g style="stroke:rgb(102,178,104);fill:rgb(175,244,175);stroke-width:1.5">
    <polygon points="6.0,-500.0 6.0,-494.0 12.0,-494.0 12.0,-500.0"/>
   </g>
  </g>
 </g>
</g>
</svg>