<?xml version="1.0" encoding="UTF-8"?> <!DOCTYPE svg PUBLIC "-//W3C//DTD SVG 1.1//EN" "http://www.w3.org/Graphics/SVG/1.1/DTD/svg11.dtd">
<svg xmlns="http://www.w3.org/2000/svg" height="608" width="539" xmlns:xlink="http://www.w3.org/1999/xlink" version="1.11.1" style="shape-rendering:geometricPrecision; text-rendering:geometricPrecision; image-rendering:optimizeQuality; fill-rule:evenodd; clip-rule:evenodd">
<g style="fill:rgb(255,255,255)">
 <polygon points="0.0,0.0 539.0,0.0 539.0,608.0 0.0,608.0"/>
</g>
<g style="stroke:rgb(0,0,0);fill:rgb(255,255,255)">
 <g transform="translate(269.5,304.0) scale(1.0,-1.0)">
  <g transform="translate(-252.0,299.0)">
   <g style="stroke:rgb(153,153,153);fill:rgb(153,153,153)">
    <g transform="translate(452.0186767578125,-16.0)">
     <path d="M 13.999993000000583 -1.3999997666674889e-2 A 14.0 14.0 0 1 0 14.0 0.0"/>
    </g>
   </g>
   <g style="stroke:rgb(0,112,191);stroke-width:2.0">
    <g transform="translate(450.0186767578125,-14.0)">
     <line x1="0" y1="0" x2="35.9813232421875" y2="-38.0"/>
    </g>
    <g transform="translate(450.0186767578125,-14.0)">
     <line x1="0" y1="0" x2="-35.9813232421875" y2="-38.0"/>
    </g>
   </g>
   <g style="stroke:rgb(102,178,104);fill:rgb(175,244,175);stroke-width:2.5">
    <g transform="translate(450.0186767578125,-14.0)">
     <path d="M 13.999993000000583 -1.3999997666674889e-2 A 14.0 14.0 0 1 0 14.0 0.0"/>
    </g>
   </g>
   <g style="stroke:rgb(204,0,0);fill:rgb(204,0,0);text-anchor:middle;font-family:Arial;font-size:17.5px">
    <g transform="translate(450.0186767578125,-20.0)">
     <g transform="scale(1 -1)">
      <text>0</text>
     </g>
    </g>
   </g>
   <g style="stroke:rgb(153,153,153);fill:rgb(153,153,153)">
    <g transform="translate(488.0,-54.0)">
     <path d="M 13.999993000000583 -1.3999997666674889e-2 A 14.0 14.0 0 1 0 14.0 0.0"/>
    </g>
   </g>
   <g style="stroke:rgb(0,112,191);stroke-width:2.0">
    <g transform="translate(486.0,-52.0)">
     <line x1="0" y1="0" x2="9.0" y2="-27.0"/>
    </g>
    <g transform="translate(486.0,-52.0)">
     <line x1="0" y1="0" x2="-9.0" y2="-27.0"/>
    </g>
   </g>
   <g style="stroke:rgb(102,178,104);fill:rgb(175,244,175);stroke-width:2.5">
    <g transform="translate(486.0,-52.0)">
     <path d="M 13.999993000000583 -1.3999997666674889e-2 A 14.0 14.0 0 1 0 14.0 0.0"/>
    </g>
   </g>
   <g style="stroke:rgb(204,0,0);fill:rgb(204,0,0);text-anchor:middle;font-family:Arial;font-size:17.5px">
    <g transform="translate(486.0,-58.0)">
     <g transform="scale(1 -1)">
      <text>1</text>
     </g>
    </g>
   </g>
   <g style="stroke:rgb(153,153,153);fill:rgb(153,153,153);stroke-width:1.5">
    <polygon points="493.0,-83.0 493.0,-77.0 499.0,-77.0 499.0,-83.0"/>
   </g>
   <g style="stroke:rgb(102,178,104);fill:rgb(175,244,175);stroke-width:1.5">
    <polygon points="492.0,-82.0 492.0,-76.0 498.0,-76.0 498.0,-82.0"/>
   </g>
   <g style="stroke:rgb(153,153,153);fill:rgb(153,153,153);stroke-width:1.5">
    <polygon points="475.0,-83.0 475.0,-77.0 481.0,-77.0 481.0,-83.0"/>
   </g>
   <g style="stroke:rgb(102,178,104);fill:rgb(175,244,175);stroke-width:1.5">
    <polygon points="474.0,-82.0 474.0,-76.0 480.0,-76.0 480.0,-82.0"/>
   </g>
   <g style="stroke:rgb(153,153,153);fill:rgb(153,153,153)">
    <g transform="translate(416.037353515625,-54.0)">
     <path d="M 13.999993000000583 -1.3999997666674889e-2 A 14.0 14.0 0 1 0 14.0 0.0"/>
    </g>
   </g>
   <g style="stroke:rgb(0,112,191);stroke-width:2.0">
    <g transform="translate(414.037353515625,-52.0)">
     <line x1="0" y1="0" x2="35.962646484375" y2="-38.0"/>
    </g>
    <g transform="translate(414.037353515625,-52.0)">
     <line x1="0" y1="0" x2="-35.962646484375" y2="-38.0"/>
    </g>
   </g>
   <g style="stroke:rgb(102,178,104);fill:rgb(175,244,175);stroke-width:2.5">
    <g transform="translate(414.037353515625,-52.0)">
     <path d="M 13.999993000000583 -1.3999997666674889e-2 A 14.0 14.0 0 1 0 14.0 0.0"/>
    </g>
   </g>
   <g style="stroke:rgb(204,0,0);fill:rgb(204,0,0);text-anchor:middle;font-family:Arial;font-size:17.5px">
    <g transform="translate(414.037353515625,-58.0)">
     <g transform="scale(1 -1)">
      <text>0</text>
     </g>
    </g>
   </g>
   <g style="stroke:rgb(153,153,153);fill:rgb(153,153,153)">
    <g transform="translate(452.0,-92.0)">
     <path d="M 13.999993000000583 -1.3999997666674889e-2 A 14.0 14.0 0 1 0 14.0 0.0"/>
    </g>
   </g>
   <g style="stroke:rgb(0,112,191);stroke-width:2.0">
    <g transform="translate(450.0,-90.0)">
     <line x1="0" y1="0" x2="9.0" y2="-27.0"/>
    </g>
    <g transform="translate(450.0,-90.0)">
     <line x1="0" y1="0" x2="-9.0" y2="-27.0"/>
    </g>
   </g>
   <g style="stroke:rgb(102,178,104);fill:rgb(175,244,175);stroke-width:2.5">
    <g transform="translate(450.0,-90.0)">
     <path d="M 13.999993000000583 -1.3999997666674889e-2 A 14.0 14.0 0 1 0 14.0 0.0"/>
    </g>
   </g>
   <g style="stroke:rgb(204,0,0);fill:rgb(204,0,0);text-anchor:middle;font-family:Arial;font-size:17.5px">
    <g transform="translate(450.0,-96.0)">
     <g transform="scale(1 -1)">
      <text>0</text>
     </g>
    </g>
   </g>
   <g style="stroke:rgb(153,153,153);fill:rgb(153,153,153);stroke-width:1.5">
    <polygon points="457.0,-121.0 457.0,-115.0 463.0,-115.0 463.0,-121.0"/>
   </g>
   <g style="stroke:rgb(102,178,104);fill:rgb(175,244,175);stroke-width:1.5">
    <polygon points="456.0,-120.0 456.0,-114.0 462.0,-114.0 462.0,-120.0"/>
   </g>
   <g style="stroke:rgb(153,153,153);fill:rgb(153,153,153);stroke-width:1.5">
    <polygon points="439.0,-121.0 439.0,-115.0 445.0,-115.0 445.0,-121.0"/>
   </g>
   <g style="stroke:rgb(102,178,104);fill:rgb(175,244,175);stroke-width:1.5">
    <polygon points="438.0,-120.0 438.0,-114.0 444.0,-114.0 444.0,-120.0"/>
   </g>
   <g style="stroke:rgb(153,153,153);fill:rgb(153,153,153)">
    <g transform="translate(380.07470703125,-92.0)">
     <path d="M 13.999993000000583 -1.3999997666674889e-2 A 14.0 14.0 0 1 0 14.0 0.0"/>
    </g>
   </g>
   <g style="stroke:rgb(0,112,191);stroke-width:2.0">
    <g transform="translate(378.07470703125,-90.0)">
     <line x1="0" y1="0" x2="35.92529296875" y2="-38.0"/>
    </g>
    <g transform="translate(378.07470703125,-90.0)">
     <line x1="0" y1="0" x2="-35.92529296875" y2="-38.0"/>
    </g>
   </g>
   <g style="stroke:rgb(102,178,104);fill:rgb(175,244,175);stroke-width:2.5">
    <g transform="translate(378.07470703125,-90.0)">
     <path d="M 13.999993000000583 -1.3999997666674889e-2 A 14.0 14.0 0 1 0 14.0 0.0"/>
    </g>
   </g>
   <g style="stroke:rgb(204,0,0);fill:rgb(204,0,0);text-anchor:middle;font-family:Arial;font-size:17.5px">
    <g transform="translate(378.07470703125,-96.0)">
     <g transform="scale(1 -1)">
      <text>1</text>
     </g>
    </g>
   </g>
   <g style="stroke:rgb(153,153,153);fill:rgb(153,153,153)">
    <g transform="translate(416.0,-130.0)">
     <path d="M 13.999993000000583 -1.3999997666674889e-2 A 14.0 14.0 0 1 0 14.0 0.0"/>
    </g>
   </g>
   <g style="stroke:rgb(0,112,191);stroke-width:2.0">
    <g transform="translate(414.0,-128.0)">
     <line x1="0" y1="0" x2="9.0" y2="-27.0"/>
    </g>
    <g transform="translate(414.0,-128.0)">
     <line x1="0" y1="0" x2="-9.0" y2="-27.0"/>
    </g>
   </g>
   <g style="stroke:rgb(102,178,104);fill:rgb(175,244,175);stroke-width:2.5">
    <g transform="translate(414.0,-128.0)">
     <path d="M 13.999993000000583 -1.3999997666674889e-2 A 14.0 14.0 0 1 0 14.0 0.0"/>
    </g>
   </g>
   <g style="stroke:rgb(204,0,0);fill:rgb(204,0,0);text-anchor:middle;font-family:Arial;font-size:17.5px">
    <g transform="translate(414.0,-134.0)">
     <g transform="scale(1 -1)">
      <text>1</text>
     </g>
    </g>
   </g>
   <g style="stroke:rgb(153,153,153);fill:rgb(153,153,153);stroke-width:1.5">
    <polygon points="421.0,-159.0 421.0,-153.0 427.0,-153.0 427.0,-159.0"/>
   </g>
   <g style="stroke:rgb(102,178,104);fill:rgb(175,244,175);stroke-width:1.5">
    <polygon points="420.0,-158.0 420.0,-152.0 426.0,-152.0 426.0,-158.0"/>
   </g>
   <g style="stroke:rgb(153,153,153);fill:rgb(153,153,153);stroke-width:1.5">
    <polygon points="403.0,-159.0 403.0,-153.0 409.0,-153.0 409.0,-159.0"/>
   </g>
   <g style="stroke:rgb(102,178,104);fill:rgb(175,244,175);stroke-width:1.5">
    <polygon points="402.0,-158.0 402.0,-152.0 408.0,-152.0 408.0,-158.0"/>
   </g>
   <g style="stroke:rgb(153,153,153);fill:rgb(153,153,153)">
    <g transform="translate(344.1494140625,-130.0)">
     <path d="M 13.999993000000583 -1.3999997666674889e-2 A 14.0 14.0 0 1 0 14.0 0.0"/>
    </g>
   </g>
   <g style="stroke:rgb(0,112,191);stroke-width:2.0">
    <g transform="translate(342.1494140625,-128.0)">
     <line x1="0" y1="0" x2="35.8505859375" y2="-38.0"/>
    </g>
    <g transform="translate(342.1494140625,-128.0)">
     <line x1="0" y1="0" x2="-35.8505859375" y2="-38.0"/>
    </g>
   </g>
   <g style="stroke:rgb(102,178,104);fill:rgb(175,244,175);stroke-width:2.5">
    <g transform="translate(342.1494140625,-128.0)">
     <path d="M 13.999993000000583 -1.3999997666674889e-2 A 14.0 14.0 0 1 0 14.0 0.0"/>
    </g>
   </g>
   <g style="stroke:rgb(204,0,0);fill:rgb(204,0,0);text-anchor:middle;font-family:Arial;font-size:17.5px">
    <g transform="translate(342.1494140625,-134.0)">
     <g transform="scale(1 -1)">
      <text>1</text>
     </g>
    </g>
   </g>
   <g style="stroke:rgb(153,153,153);fill:rgb(153,153,153)">
    <g transform="translate(380.0,-168.0)">
     <path d="M 13.999993000000583 -1.3999997666674889e-2 A 14.0 14.0 0 1 0 14.0 0.0"/>
    </g>
   </g>
   <g style="stroke:rgb(0,112,191);stroke-width:2.0">
    <g transform="translate(378.0,-166.0)">
     <line x1="0" y1="0" x2="9.0" y2="-27.0"/>
    </g>
    <g transform="translate(378.0,-166.0)">
     <line x1="0" y1="0" x2="-9.0" y2="-27.0"/>
    </g>
   </g>
   <g style="stroke:rgb(102,178,104);fill:rgb(175,244,175);stroke-width:2.5">
    <g transform="translate(378.0,-166.0)">
     <path d="M 13.999993000000583 -1.3999997666674889e-2 A 14.0 14.0 0 1 0 14.0 0.0"/>
    </g>
   </g>
   <g style="stroke:rgb(204,0,0);fill:rgb(204,0,0);text-anchor:middle;font-family:Arial;font-size:17.5px">
    <g transform="translate(378.0,-172.0)">
     <g transform="scale(1 -1)">
      <text>4</text>
     </g>
    </g>
   </g>
   <g style="stroke:rgb(153,153,153);fill:rgb(153,153,153);stroke-width:1.5">
    <polygon points="385.0,-197.0 385.0,-191.0 391.0,-191.0 391.0,-197.0"/>
   </g>
   <g style="stroke:rgb(102,178,104);fill:rgb(175,244,175);stroke-width:1.5">
    <polygon points="384.0,-196.0 384.0,-190.0 390.0,-190.0 390.0,-196.0"/>
   </g>
   <g style="stroke:rgb(153,153,153);fill:rgb(153,153,153);stroke-width:1.5">
    <polygon points="367.0,-197.0 367.0,-191.0 373.0,-191.0 373.0,-197.0"/>
   </g>
   <g style="stroke:rgb(102,178,104);fill:rgb(175,244,175);stroke-width:1.5">
    <polygon points="366.0,-196.0 366.0,-190.0 372.0,-190.0 372.0,-196.0"/>
   </g>
   <g style="stroke:rgb(153,153,153);fill:rgb(153,153,153)">
    <g transform="translate(308.298828125,-168.0)">
     <path d="M 13.999993000000583 -1.3999997666674889e-2 A 14.0 14.0 0 1 0 14.0 0.0"/>
    </g>
   </g>
   <g style="stroke:rgb(0,112,191);stroke-width:2.0">
    <g transform="translate(306.298828125,-166.0)">
     <line x1="0" y1="0" x2="35.701171875" y2="-38.0"/>
    </g>
    <g transform="translate(306.298828125,-166.0)">
     <line x1="0" y1="0" x2="-35.701171875" y2="-38.0"/>
    </g>
   </g>
   <g style="stroke:rgb(102,178,104);fill:rgb(175,244,175);stroke-width:2.5">
    <g transform="translate(306.298828125,-166.0)">
     <path d="M 13.999993000000583 -1.3999997666674889e-2 A 14.0 14.0 0 1 0 14.0 0.0"/>
    </g>
   </g>
   <g style="stroke:rgb(204,0,0);fill:rgb(204,0,0);text-anchor:middle;font-family:Arial;font-size:17.5px">
    <g transform="translate(306.298828125,-172.0)">
     <g transform="scale(1 -1)">
      <text>1</text>
     </g>
    </g>
   </g>
   <g style="stroke:rgb(153,153,153);fill:rgb(153,153,153)">
    <g transform="translate(344.0,-206.0)">
     <path d="M 13.999993000000583 -1.3999997666674889e-2 A 14.0 14.0 0 1 0 14.0 0.0"/>
    </g>
   </g>
   <g style="stroke:rgb(0,112,191);stroke-width:2.0">
    <g transform="translate(342.0,-204.0)">
     <line x1="0" y1="0" x2="9.0" y2="-27.0"/>
    </g>
    <g transform="translate(342.0,-204.0)">
     <line x1="0" y1="0" x2="-9.0" y2="-27.0"/>
    </g>
   </g>
   <g style="stroke:rgb(102,178,104);fill:rgb(175,244,175);stroke-width:2.5">
    <g transform="translate(342.0,-204.0)">
     <path d="M 13.999993000000583 -1.3999997666674889e-2 A 14.0 14.0 0 1 0 14.0 0.0"/>
    </g>
   </g>
   <g style="stroke:rgb(204,0,0);fill:rgb(204,0,0);text-anchor:middle;font-family:Arial;font-size:17.5px">
    <g transform="translate(342.0,-210.0)">
     <g transform="scale(1 -1)">
      <text>6</text>
     </g>
    </g>
   </g>
   <g style="stroke:rgb(153,153,153);fill:rgb(153,153,153);stroke-width:1.5">
    <polygon points="349.0,-235.0 349.0,-229.0 355.0,-229.0 355.0,-235.0"/>
   </g>
   <g style="stroke:rgb(102,178,104);fill:rgb(175,244,175);stroke-width:1.5">
    <polygon points="348.0,-234.0 348.0,-228.0 354.0,-228.0 354.0,-234.0"/>
   </g>
   <g style="stroke:rgb(153,153,153);fill:rgb(153,153,153);stroke-width:1.5">
    <polygon points="331.0,-235.0 331.0,-229.0 337.0,-229.0 337.0,-235.0"/>
   </g>
   <g style="stroke:rgb(102,178,104);fill:rgb(175,244,175);stroke-width:1.5">
    <polygon points="330.0,-234.0 330.0,-228.0 336.0,-228.0 336.0,-234.0"/>
   </g>
   <g style="stroke:rgb(153,153,153);fill:rgb(153,153,153)">
    <g transform="translate(272.59765625,-206.0)">
     <path d="M 13.999993000000583 -1.3999997666674889e-2 A 14.0 14.0 0 1 0 14.0 0.0"/>
    </g>
   </g>
   <g style="stroke:rgb(0,112,191);stroke-width:2.0">
    <g transform="translate(270.59765625,-204.0)">
     <line x1="0" y1="0" x2="35.40234375" y2="-38.0"/>
    </g>
    <g transform="translate(270.59765625,-204.0)">
     <line x1="0" y1="0" x2="-35.40234375" y2="-38.0"/>
    </g>
   </g>
   <g style="stroke:rgb(102,178,104);fill:rgb(175,244,175);stroke-width:2.5">
    <g transform="translate(270.59765625,-204.0)">
     <path d="M 13.999993000000583 -1.3999997666674889e-2 A 14.0 14.0 0 1 0 14.0 0.0"/>
    </g>
   </g>
   <g style="stroke:rgb(204,0,0);fill:rgb(204,0,0);text-anchor:middle;font-family:Arial;font-size:17.5px">
    <g transform="translate(270.59765625,-210.0)">
     <g transform="scale(1 -1)">
      <text>1</text>
     </g>
    </g>
   </g>
   <g style="stroke:rgb(153,153,153);fill:rgb(153,153,153)">
    <g transform="translate(308.0,-244.0)">
     <path d="M 13.999993000000583 -1.3999997666674889e-2 A 14.0 14.0 0 1 0 14.0 0.0"/>
    </g>
   </g>
   <g style="stroke:rgb(0,112,191);stroke-width:2.0">
    <g transform="translate(306.0,-242.0)">
     <line x1="0" y1="0" x2="9.0" y2="-27.0"/>
    </g>
    <g transform="translate(306.0,-242.0)">
     <line x1="0" y1="0" x2="-9.0" y2="-27.0"/>
    </g>
   </g>
   <g style="stroke:rgb(102,178,104);fill:rgb(175,244,175);stroke-width:2.5">
    <g transform="translate(306.0,-242.0)">
     <path d="M 13.999993000000583 -1.3999997666674889e-2 A 14.0 14.0 0 1 0 14.0 0.0"/>
    </g>
   </g>
   <g style="stroke:rgb(204,0,0);fill:rgb(204,0,0);text-anchor:middle;font-family:Arial;font-size:17.5px">
    <g transform="translate(306.0,-248.0)">
     <g transform="scale(1 -1)">
      <text>4</text>
     </g>
    </g>
   </g>
   <g style="stroke:rgb(153,153,153);fill:rgb(153,153,153);stroke-width:1.5">
    <polygon points="313.0,-273.0 313.0,-267.0 319.0,-267.0 319.0,-273.0"/>
   </g>
   <g style="stroke:rgb(102,178,104);fill:rgb(175,244,175);stroke-width:1.5">
    <polygon points="312.0,-272.0 312.0,-266.0 318.0,-266.0 318.0,-272.0"/>
   </g>
   <g style="stroke:rgb(153,153,153);fill:rgb(153,153,153);stroke-width:1.5">
    <polygon points="295.0,-273.0 295.0,-267.0 301.0,-267.0 301.0,-273.0"/>
   </g>
   <g style="stroke:rgb(102,178,104);fill:rgb(175,244,175);stroke-width:1.5">
    <polygon points="294.0,-272.0 294.0,-266.0 300.0,-266.0 300.0,-272.0"/>
   </g>
   <g style="stroke:rgb(153,153,153);fill:rgb(153,153,153)">
    <g transform="translate(237.1953125,-244.0)">
     <path d="M 13.999993000000583 -1.3999997666674889e-2 A 14.0 14.0 0 1 0 14.0 0.0"/>
    </g>
   </g>
   <g style="stroke:rgb(0,112,191);stroke-width:2.0">
    <g transform="translate(235.1953125,-242.0)">
     <line x1="0" y1="0" x2="34.8046875" y2="-38.0"/>
    </g>
    <g transform="translate(235.1953125,-242.0)">
     <line x1="0" y1="0" x2="-34.8046875" y2="-38.0"/>
    </g>
   </g>
   <g style="stroke:rgb(102,178,104);fill:rgb(175,244,175);stroke-width:2.5">
    <g transform="translate(235.1953125,-242.0)">
     <path d="M 13.999993000000583 -1.3999997666674889e-2 A 14.0 14.0 0 1 0 14.0 0.0"/>
    </g>
   </g>
   <g style="stroke:rgb(204,0,0);fill:rgb(204,0,0);text-anchor:middle;font-family:Arial;font-size:17.5px">
    <g transform="translate(235.1953125,-248.0)">
     <g transform="scale(1 -1)">
      <text>1</text>
     </g>
    </g>
   </g>
   <g style="stroke:rgb(153,153,153);fill:rgb(153,153,153)">
    <g transform="translate(272.0,-282.0)">
     <path d="M 13.999993000000583 -1.3999997666674889e-2 A 14.0 14.0 0 1 0 14.0 0.0"/>
    </g>
   </g>
   <g style="stroke:rgb(0,112,191);stroke-width:2.0">
    <g transform="translate(270.0,-280.0)">
     <line x1="0" y1="0" x2="9.0" y2="-27.0"/>
    </g>
    <g transform="translate(270.0,-280.0)">
     <line x1="0" y1="0" x2="-9.0" y2="-27.0"/>
    </g>
   </g>
   <g style="stroke:rgb(102,178,104);fill:rgb(175,244,175);stroke-width:2.5">
    <g transform="translate(270.0,-280.0)">
     <path d="M 13.999993000000583 -1.3999997666674889e-2 A 14.0 14.0 0 1 0 14.0 0.0"/>
    </g>
   </g>
   <g style="stroke:rgb(204,0,0);fill:rgb(204,0,0);text-anchor:middle;font-family:Arial;font-size:17.5px">
    <g transform="translate(270.0,-286.0)">
     <g transform="scale(1 -1)">
      <text>1</text>
     </g>
    </g>
   </g>
   <g style="stroke:rgb(153,153,153);fill:rgb(153,153,153);stroke-width:1.5">
    <polygon points="277.0,-311.0 277.0,-305.0 283.0,-305.0 283.0,-311.0"/>
   </g>
   <g style="stroke:rgb(102,178,104);fill:rgb(175,244,175);stroke-width:1.5">
    <polygon points="276.0,-310.0 276.0,-304.0 282.0,-304.0 282.0,-310.0"/>
   </g>
   <g style="stroke:rgb(153,153,153);fill:rgb(153,153,153);stroke-width:1.5">
    <polygon points="259.0,-311.0 259.0,-305.0 265.0,-305.0 265.0,-311.0"/>
   </g>
   <g style="stroke:rgb(102,178,104);fill:rgb(175,244,175);stroke-width:1.5">
    <polygon points="258.0,-310.0 258.0,-304.0 264.0,-304.0 264.0,-310.0"/>
   </g>
   <g style="stroke:rgb(153,153,153);fill:rgb(153,153,153)">
    <g transform="translate(202.390625,-282.0)">
     <path d="M 13.999993000000583 -1.3999997666674889e-2 A 14.0 14.0 0 1 0 14.0 0.0"/>
    </g>
   </g>
   <g style="stroke:rgb(0,112,191);stroke-width:2.0">
    <g transform="translate(200.390625,-280.0)">
     <line x1="0" y1="0" x2="33.609375" y2="-38.0"/>
    </g>
    <g transform="translate(200.390625,-280.0)">
     <line x1="0" y1="0" x2="-33.609375" y2="-38.0"/>
    </g>
   </g>
   <g style="stroke:rgb(102,178,104);fill:rgb(175,244,175);stroke-width:2.5">
    <g transform="translate(200.390625,-280.0)">
     <path d="M 13.999993000000583 -1.3999997666674889e-2 A 14.0 14.0 0 1 0 14.0 0.0"/>
    </g>
   </g>
   <g style="stroke:rgb(204,0,0);fill:rgb(204,0,0);text-anchor:middle;font-family:Arial;font-size:17.5px">
    <g transform="translate(200.390625,-286.0)">
     <g transform="scale(1 -1)">
      <text>3</text>
     </g>
    </g>
   </g>
   <g style="stroke:rgb(153,153,153);fill:rgb(153,153,153)">
    <g transform="translate(236.0,-320.0)">
     <path d="M 13.999993000000583 -1.3999997666674889e-2 A 14.0 14.0 0 1 0 14.0 0.0"/>
    </g>
   </g>
   <g style="stroke:rgb(0,112,191);stroke-width:2.0">
    <g transform="translate(234.0,-318.0)">
     <line x1="0" y1="0" x2="9.0" y2="-27.0"/>
    </g>
    <g transform="translate(234.0,-318.0)">
     <line x1="0" y1="0" x2="-9.0" y2="-27.0"/>
    </g>
   </g>
   <g style="stroke:rgb(102,178,104);fill:rgb(175,244,175);stroke-width:2.5">
    <g transform="translate(234.0,-318.0)">
     <path d="M 13.999993000000583 -1.3999997666674889e-2 A 14.0 14.0 0 1 0 14.0 0.0"/>
    </g>
   </g>
   <g style="stroke:rgb(204,0,0);fill:rgb(204,0,0);text-anchor:middle;font-family:Arial;font-size:17.5px">
    <g transform="translate(234.0,-324.0)">
     <g transform="scale(1 -1)">
      <text>3</text>
     </g>
    </g>
   </g>
   <g style="stroke:rgb(153,153,153);fill:rgb(153,153,153);stroke-width:1.5">
    <polygon points="241.0,-349.0 241.0,-343.0 247.0,-343.0 247.0,-349.0"/>
   </g>
   <g style="stroke:rgb(102,178,104);fill:rgb(175,244,175);stroke-width:1.5">
    <polygon points="240.0,-348.0 240.0,-342.0 246.0,-342.0 246.0,-348.0"/>
   </g>
   <g style="stroke:rgb(153,153,153);fill:rgb(153,153,153);stroke-width:1.5">
    <polygon points="223.0,-349.0 223.0,-343.0 229.0,-343.0 229.0,-349.0"/>
   </g>
   <g style="stroke:rgb(102,178,104);fill:rgb(175,244,175);stroke-width:1.5">
    <polygon points="222.0,-348.0 222.0,-342.0 228.0,-342.0 228.0,-348.0"/>
   </g>
   <g style="stroke:rgb(153,153,153);fill:rgb(153,153,153)">
    <g transform="translate(168.78125,-320.0)">
     <path d="M 13.999993000000583 -1.3999997666674889e-2 A 14.0 14.0 0 1 0 14.0 0.0"/>
    </g>
   </g>
   <g style="stroke:rgb(0,112,191);stroke-width:2.0">
    <g transform="translate(166.78125,-318.0)">
     <line x1="0" y1="0" x2="31.21875" y2="-38.0"/>
    </g>
    <g transform="translate(166.78125,-318.0)">
     <line x1="0" y1="0" x2="-31.21875" y2="-38.0"/>
    </g>
   </g>
   <g style="stroke:rgb(102,178,104);fill:rgb(175,244,175);stroke-width:2.5">
    <g transform="translate(166.78125,-318.0)">
     <path d="M 13.999993000000583 -1.3999997666674889e-2 A 14.0 14.0 0 1 0 14.0 0.0"/>
    </g>
   </g>
   <g style="stroke:rgb(204,0,0);fill:rgb(204,0,0);text-anchor:middle;font-family:Arial;font-size:17.5px">
    <g transform="translate(166.78125,-324.0)">
     <g transform="scale(1 -1)">
      <text>3</text>
     </g>
    </g>
   </g>
   <g style="stroke:rgb(153,153,153);fill:rgb(153,153,153)">
    <g transform="translate(200.0,-358.0)">
     <path d="M 13.999993000000583 -1.3999997666674889e-2 A 14.0 14.0 0 1 0 14.0 0.0"/>
    </g>
   </g>
   <g style="stroke:rgb(0,112,191);stroke-width:2.0">
    <g transform="translate(198.0,-356.0)">
     <line x1="0" y1="0" x2="9.0" y2="-27.0"/>
    </g>
    <g transform="translate(198.0,-356.0)">
     <line x1="0" y1="0" x2="-9.0" y2="-27.0"/>
    </g>
   </g>
   <g style="stroke:rgb(102,178,104);fill:rgb(175,244,175);stroke-width:2.5">
    <g transform="translate(198.0,-356.0)">
     <path d="M 13.999993000000583 -1.3999997666674889e-2 A 14.0 14.0 0 1 0 14.0 0.0"/>
    </g>
   </g>
   <g style="stroke:rgb(204,0,0);fill:rgb(204,0,0);text-anchor:middle;font-family:Arial;font-size:17.5px">
    <g transform="translate(198.0,-362.0)">
     <g transform="scale(1 -1)">
      <text>5</text>
     </g>
    </g>
   </g>
   <g style="stroke:rgb(153,153,153);fill:rgb(153,153,153);stroke-width:1.5">
    <polygon points="205.0,-387.0 205.0,-381.0 211.0,-381.0 211.0,-387.0"/>
   </g>
   <g style="stroke:rgb(102,178,104);fill:rgb(175,244,175);stroke-width:1.5">
    <polygon points="204.0,-386.0 204.0,-380.0 210.0,-380.0 210.0,-386.0"/>
   </g>
   <g style="stroke:rgb(153,153,153);fill:rgb(153,153,153);stroke-width:1.5">
    <polygon points="187.0,-387.0 187.0,-381.0 193.0,-381.0 193.0,-387.0"/>
   </g>
   <g style="stroke:rgb(102,178,104);fill:rgb(175,244,175);stroke-width:1.5">
    <polygon points="186.0,-386.0 186.0,-380.0 192.0,-380.0 192.0,-386.0"/>
   </g>
   <g style="stroke:rgb(153,153,153);fill:rgb(153,153,153)">
    <g transform="translate(137.5625,-358.0)">
     <path d="M 13.999993000000583 -1.3999997666674889e-2 A 14.0 14.0 0 1 0 14.0 0.0"/>
    </g>
   </g>
   <g style="stroke:rgb(0,112,191);stroke-width:2.0">
    <g transform="translate(135.5625,-356.0)">
     <line x1="0" y1="0" x2="26.4375" y2="-38.0"/>
    </g>
    <g transform="translate(135.5625,-356.0)">
     <line x1="0" y1="0" x2="-26.4375" y2="-38.0"/>
    </g>
   </g>
   <g style="stroke:rgb(102,178,104);fill:rgb(175,244,175);stroke-width:2.5">
    <g transform="translate(135.5625,-356.0)">
     <path d="M 13.999993000000583 -1.3999997666674889e-2 A 14.0 14.0 0 1 0 14.0 0.0"/>
    </g>
   </g>
   <g style="stroke:rgb(204,0,0);fill:rgb(204,0,0);text-anchor:middle;font-family:Arial;font-size:17.5px">
    <g transform="translate(135.5625,-362.0)">
     <g transform="scale(1 -1)">
      <text>3</text>
     </g>
    </g>
   </g>
   <g style="stroke:rgb(153,153,153);fill:rgb(153,153,153)">
    <g transform="translate(164.0,-396.0)">
     <path d="M 13.999993000000583 -1.3999997666674889e-2 A 14.0 14.0 0 1 0 14.0 0.0"/>
    </g>
   </g>
   <g style="stroke:rgb(0,112,191);stroke-width:2.0">
    <g transform="translate(162.0,-394.0)">
     <line x1="0" y1="0" x2="9.0" y2="-27.0"/>
    </g>
    <g transform="translate(162.0,-394.0)">
     <line x1="0" y1="0" x2="-9.0" y2="-27.0"/>
    </g>
   </g>
   <g style="stroke:rgb(102,178,104);fill:rgb(175,244,175);stroke-width:2.5">
    <g transform="translate(162.0,-394.0)">
     <path d="M 13.999993000000583 -1.3999997666674889e-2 A 14.0 14.0 0 1 0 14.0 0.0"/>
    </g>
   </g>
   <g style="stroke:rgb(204,0,0);fill:rgb(204,0,0);text-anchor:middle;font-family:Arial;font-size:17.5px">
    <g transform="translate(162.0,-400.0)">
     <g transform="scale(1 -1)">
      <text>8</text>
     </g>
    </g>
   </g>
   <g style="stroke:rgb(153,153,153);fill:rgb(153,153,153);stroke-width:1.5">
    <polygon points="169.0,-425.0 169.0,-419.0 175.0,-419.0 175.0,-425.0"/>
   </g>
   <g style="stroke:rgb(102,178,104);fill:rgb(175,244,175);stroke-width:1.5">
    <polygon points="168.0,-424.0 168.0,-418.0 174.0,-418.0 174.0,-424.0"/>
   </g>
   <g style="stroke:rgb(153,153,153);fill:rgb(153,153,153);stroke-width:1.5">
    <polygon points="151.0,-425.0 151.0,-419.0 157.0,-419.0 157.0,-425.0"/>
   </g>
   <g style="stroke:rgb(102,178,104);fill:rgb(175,244,175);stroke-width:1.5">
    <polygon points="150.0,-424.0 150.0,-418.0 156.0,-418.0 156.0,-424.0"/>
   </g>
   <g style="stroke:rgb(153,153,153);fill:rgb(153,153,153)">
    <g transform="translate(111.125,-396.0)">
     <path d="M 13.999993000000583 -1.3999997666674889e-2 A 14.0 14.0 0 1 0 14.0 0.0"/>
    </g>
   </g>
   <g style="stroke:rgb(0,112,191);stroke-width:2.0">
    <g transform="translate(109.125,-394.0)">
     <line x1="0" y1="0" x2="25.875" y2="-27.0"/>
    </g>
    <g transform="translate(109.125,-394.0)">
     <line x1="0" y1="0" x2="-25.875" y2="-38.0"/>
    </g>
   </g>
   <g style="stroke:rgb(102,178,104);fill:rgb(175,244,175);stroke-width:2.5">
    <g transform="translate(109.125,-394.0)">
     <path d="M 13.999993000000583 -1.3999997666674889e-2 A 14.0 14.0 0 1 0 14.0 0.0"/>
    </g>
   </g>
   <g style="stroke:rgb(204,0,0);fill:rgb(204,0,0);text-anchor:middle;font-family:Arial;font-size:17.5px">
    <g transform="translate(109.125,-400.0)">
     <g transform="scale(1 -1)">
      <text>3</text>
     </g>
    </g>
   </g>
   <g style="stroke:rgb(153,153,153);fill:rgb(153,153,153);stroke-width:1.5">
    <polygon points="133.0,-425.0 133.0,-419.0 139.0,-419.0 139.0,-425.0"/>
   </g>
   <g style="stroke:rgb(102,178,104);fill:rgb(175,244,175);stroke-width:1.5">
    <polygon points="132.0,-424.0 132.0,-418.0 138.0,-418.0 138.0,-424.0"/>
   </g>
   <g style="stroke:rgb(153,153,153);fill:rgb(153,153,153)">
    <g transform="translate(85.25,-434.0)">
     <path d="M 13.999993000000583 -1.3999997666674889e-2 A 14.0 14.0 0 1 0 14.0 0.0"/>
    </g>
   </g>
   <g style="stroke:rgb(0,112,191);stroke-width:2.0">
    <g transform="translate(83.25,-432.0)">
     <line x1="0" y1="0" x2="24.75" y2="-38.0"/>
    </g>
    <g transform="translate(83.25,-432.0)">
     <line x1="0" y1="0" x2="-24.75" y2="-38.0"/>
    </g>
   </g>
   <g style="stroke:rgb(102,178,104);fill:rgb(175,244,175);stroke-width:2.5">
    <g transform="translate(83.25,-432.0)">
     <path d="M 13.999993000000583 -1.3999997666674889e-2 A 14.0 14.0 0 1 0 14.0 0.0"/>
    </g>
   </g>
   <g style="stroke:rgb(204,0,0);fill:rgb(204,0,0);text-anchor:middle;font-family:Arial;font-size:17.5px">
    <g transform="translate(83.25,-438.0)">
     <g transform="scale(1 -1)">
      <text>4</text>
     </g>
    </g>
   </g>
   <g style="stroke:rgb(153,153,153);fill:rgb(153,153,153)">
    <g transform="translate(110.0,-472.0)">
     <path d="M 13.999993000000583 -1.3999997666674889e-2 A 14.0 14.0 0 1 0 14.0 0.0"/>
    </g>
   </g>
   <g style="stroke:rgb(0,112,191);stroke-width:2.0">
    <g transform="translate(108.0,-470.0)">
     <line x1="0" y1="0" x2="9.0" y2="-27.0"/>
    </g>
    <g transform="translate(108.0,-470.0)">
     <line x1="0" y1="0" x2="-9.0" y2="-27.0"/>
    </g>
   </g>
   <g style="stroke:rgb(102,178,104);fill:rgb(175,244,175);stroke-width:2.5">
    <g transform="translate(108.0,-470.0)">
     <path d="M 13.999993000000583 -1.3999997666674889e-2 A 14.0 14.0 0 1 0 14.0 0.0"/>
    </g>
   </g>
   <g style="stroke:rgb(204,0,0);fill:rgb(204,0,0);text-anchor:middle;font-family:Arial;font-size:17.5px">
    <g transform="translate(108.0,-476.0)">
     <g transform="scale(1 -1)">
      <text>4</text>
     </g>
    </g>
   </g>
   <g style="stroke:rgb(153,153,153);fill:rgb(153,153,153);stroke-width:1.5">
    <polygon points="115.0,-501.0 115.0,-495.0 121.0,-495.0 121.0,-501.0"/>
   </g>
   <g style="stroke:rgb(102,178,104);fill:rgb(175,244,175);stroke-width:1.5">
    <polygon points="114.0,-500.0 114.0,-494.0 120.0,-494.0 120.0,-500.0"/>
   </g>
   <g style="stroke:rgb(153,153,153);fill:rgb(153,153,153);stroke-width:1.5">
    <polygon points="97.0,-501.0 97.0,-495.0 103.0,-495.0 103.0,-501.0"/>
   </g>
   <g style="stroke:rgb(102,178,104);fill:rgb(175,244,175);stroke-width:1.5">
    <polygon points="96.0,-500.0 96.0,-494.0 102.0,-494.0 102.0,-500.0"/>
   </g>
   <g style="stroke:rgb(153,153,153);fill:rgb(153,153,153)">
    <g transform="translate(60.5,-472.0)">
     <path d="M 13.999993000000583 -1.3999997666674889e-2 A 14.0 14.0 0 1 0 14.0 0.0"/>
    </g>
   </g>
   <g style="stroke:rgb(0,112,191);stroke-width:2.0">
    <g transform="translate(58.5,-470.0)">
     <line x1="0" y1="0" x2="22.5" y2="-27.0"/>
    </g>
    <g transform="translate(58.5,-470.0)">
     <line x1="0" y1="0" x2="-22.5" y2="-38.0"/>
    </g>
   </g>
   <g style="stroke:rgb(102,178,104);fill:rgb(175,244,175);stroke-width:2.5">
    <g transform="translate(58.5,-470.0)">
     <path d="M 13.999993000000583 -1.3999997666674889e-2 A 14.0 14.0 0 1 0 14.0 0.0"/>
    </g>
   </g>
   <g style="stroke:rgb(204,0,0);fill:rgb(204,0,0);text-anchor:middle;font-family:Arial;font-size:17.5px">
    <g transform="translate(58.5,-476.0)">
     <g transform="scale(1 -1)">
      <text>4</text>
     </g>
    </g>
   </g>
   <g style="stroke:rgb(153,153,153);fill:rgb(153,153,153);stroke-width:1.5">
    <polygon points="79.0,-501.0 79.0,-495.0 85.0,-495.0 85.0,-501.0"/>
   </g>
   <g style="stroke:rgb(102,178,104);fill:rgb(175,244,175);stroke-width:1.5">
    <polygon points="78.0,-500.0 78.0,-494.0 84.0,-494.0 84.0,-500.0"/>
   </g>
   <g style="stroke:rgb(153,153,153);fill:rgb(153,153,153)">
    <g transform="translate(38.0,-510.0)">
     <path d="M 13.999993000000583 -1.3999997666674889e-2 A 14.0 14.0 0 1 0 14.0 0.0"/>
    </g>
   </g>
   <g style="stroke:rgb(0,112,191);stroke-width:2.0">
    <g transform="translate(36.0,-508.0)">
     <line x1="0" y1="0" x2="18.0" y2="-38.0"/>
    </g>
    <g transform="translate(36.0,-508.0)">
     <line x1="0" y1="0" x2="-18.0" y2="-38.0"/>
    </g>
   </g>
   <g style="stroke:rgb(102,178,104);fill:rgb(175,244,175);stroke-width:2.5">
    <g transform="translate(36.0,-508.0)">
     <path d="M 13.999993000000583 -1.3999997666674889e-2 A 14.0 14.0 0 1 0 14.0 0.0"/>
    </g>
   </g>
   <g style="stroke:rgb(204,0,0);fill:rgb(204,0,0);text-anchor:middle;font-family:Arial;font-size:17.5px">
    <g transform="translate(36.0,-514.0)">
     <g transform="scale(1 -1)">
      <text>5</text>
     </g>
    </g>
   </g>
   <g style="stroke:rgb(153,153,153);fill:rgb(153,153,153)">
    <g transform="translate(56.0,-548.0)">
     <path d="M 13.999993000000583 -1.3999997666674889e-2 A 14.0 14.0 0 1 0 14.0 0.0"/>
    </g>
   </g>
   <g style="stroke:rgb(0,112,191);stroke-width:2.0">
    <g transform="translate(54.0,-546.0)">
     <line x1="0" y1="0" x2="9.0" y2="-27.0"/>
    </g>
    <g transform="translate(54.0,-546.0)">
     <line x1="0" y1="0" x2="-9.0" y2="-27.0"/>
    </g>
   </g>
   <g style="stroke:rgb(102,178,104);fill:rgb(175,244,175);stroke-width:2.5">
    <g transform="translate(54.0,-546.0)">
     <path d="M 13.999993000000583 -1.3999997666674889e-2 A 14.0 14.0 0 1 0 14.0 0.0"/>
    </g>
   </g>
   <g style="stroke:rgb(204,0,0);fill:rgb(204,0,0);text-anchor:middle;font-family:Arial;font-size:17.5px">
    <g transform="translate(54.0,-552.0)">
     <g transform="scale(1 -1)">
      <text>5</text>
     </g>
    </g>
   </g>
   <g style="stroke:rgb(153,153,153);fill:rgb(153,153,153);stroke-width:1.5">
    <polygon points="61.0,-577.0 61.0,-571.0 67.0,-571.0 67.0,-577.0"/>
   </g>
   <g style="stroke:rgb(102,178,104);fill:rgb(175,244,175);stroke-width:1.5">
    <polygon points="60.0,-576.0 60.0,-570.0 66.0,-570.0 66.0,-576.0"/>
   </g>
   <g style="stroke:rgb(153,153,153);fill:rgb(153,153,153);stroke-width:1.5">
    <polygon points="43.0,-577.0 43.0,-571.0 49.0,-571.0 49.0,-577.0"/>
   </g>
   <g style="stroke:rgb(102,178,104);fill:rgb(175,244,175);stroke-width:1.5">
    <polygon points="42.0,-576.0 42.0,-570.0 48.0,-570.0 48.0,-576.0"/>
   </g>
   <g style="stroke:rgb(153,153,153);fill:rgb(153,153,153)">
    <g transform="translate(20.0,-548.0)">
     <path d="M 13.999993000000583 -1.3999997666674889e-2 A 14.0 14.0 0 1 0 14.0 0.0"/>
    </g>
   </g>
   <g style="stroke:rgb(0,112,191);stroke-width:2.0">
    <g transform="translate(18.0,-546.0)">
     <line x1="0" y1="0" x2="9.0" y2="-27.0"/>
    </g>
    <g transform="translate(18.0,-546.0)">
     <line x1="0" y1="0" x2="-9.0" y2="-27.0"/>
    </g>
   </g>
   <g style="stroke:rgb(102,178,104);fill:rgb(175,244,175);stroke-width:2.5">
    <g transform="translate(18.0,-546.0)">
     <path d="M 13.999993000000583 -1.3999997666674889e-2 A 14.0 14.0 0 1 0 14.0 0.0"/>
    </g>
   </g>
   <g style="stroke:rgb(204,0,0);fill:rgb(204,0,0);text-anchor:middle;font-family:Arial;font-size:17.5px">
    <g transform="translate(18.0,-552.0)">
     <g transform="scale(1 -1)">
      <text>8</text>
     </g>
    </g>
   </g>
   <g style="stroke:rgb(153,153,153);fill:rgb(153,153,153);stroke-width:1.5">
    <polygon points="25.0,-577.0 25.0,-571.0 31.0,-571.0 31.0,-577.0"/>
   </g>
   <g style="stroke:rgb(102,178,104);fill:rgb(175,244,175);stroke-width:1.5">
    <polygon points="24.0,-576.0 24.0,-570.0 30.0,-570.0 30.0,-576.0"/>
   </g>
   <g style="stroke:rgb(153,153,153);fill:rgb(153,153,153);stroke-width:1.5">
    <polygon points="7.0,-577.0 7.0,-571.0 13.0,-571.0 13.0,-577.0"/>
   </g>
   <g style="stroke:rgb(102,178,104);fill:rgb(175,244,175);stroke-width:1.5">
    <polygon points="6.0,-576.0 6.0,-570.0 12.0,-570.0 12.0,-576.0"/>
   </g>
  </g>
 </g>
</g>
</svg>