<?xml version="1.0" encoding="UTF-8"?> <!DOCTYPE svg PUBLIC "-//W3C//DTD SVG 1.1//EN" "http://www.w3.org/Graphics/SVG/1.1/DTD/svg11.dtd">
<svg xmlns="http://www.w3.org/2000/svg" height="646" width="575" xmlns:xlink="http://www.w3.org/1999/xlink" version="1.11.1" style="shape-rendering:geometricPrecision; text-rendering:geometricPrecision; image-rendering:optimizeQuality; fill-rule:evenodd; clip-rule:evenodd">
<g style="fill:rgb(255,255,255)">
 <polygon points="0.0,0.0 575.0,0.0 575.0,646.0 0.0,646.0"/>
</g>
<g style="stroke:rgb(0,0,0);fill:rgb(255,255,255)">
 <g transform="translate(287.5,323.0) scale(1.0,-1.0)">
  <g transform="translate(-270.0,318.0)">
   <g style="stroke:rgb(153,153,153);fill:rgb(153,153,153)">
    <g transform="translate(488.00933837890625,-16.0)">
     <path d="M 13.999993000000583 -1.3999997666674889e-2 A 14.0 14.0 0 1 0 14.0 0.0"/>
    </g>
   </g>
   <g style="stroke:rgb(0,112,191);stroke-width:2.0">
    <g transform="translate(486.00933837890625,-14.0)">
     <line x1="0" y1="0" x2="35.99066162109375" y2="-38.0"/>
    </g>
    <g transform="translate(486.00933837890625,-14.0)">
     <line x1="0" y1="0" x2="-35.99066162109375" y2="-38.0"/>
    </g>
   </g>
   <g style="stroke:rgb(102,178,104);fill:rgb(175,244,175);stroke-width:2.5">
    <g transform="translate(486.00933837890625,-14.0)">
     <path d="M 13.999993000000583 -1.3999997666674889e-2 A 14.0 14.0 0 1 0 14.0 0.0"/>
    </g>
   </g>
   <g style="stroke:rgb(204,0,0);fill:rgb(204,0,0);text-anchor:middle;font-family:Arial;font-size:17.5px">
    <g transform="translate(486.00933837890625,-20.0)">
     <g transform="scale(1 -1)">
      <text>0</text>
     </g>
    </g>
   </g>
   <g style="stroke:rgb(153,153,153);fill:rgb(153,153,153)">
    <g transform="translate(524.0,-54.0)">
     <path d="M 13.999993000000583 -1.3999997666674889e-2 A 14.0 14.0 0 1 0 14.0 0.0"/>
    </g>
   </g>
   <g style="stroke:rgb(0,112,191);stroke-width:2.0">
    <g transform="translate(522.0,-52.0)">
     <line x1="0" y1="0" x2="9.0" y2="-27.0"/>
    </g>
    <g transform="translate(522.0,-52.0)">
     <line x1="0" y1="0" x2="-9.0" y2="-27.0"/>
    </g>
   </g>
   <g style="stroke:rgb(102,178,104);fill:rgb(175,244,175);stroke-width:2.5">
    <g transform="translate(522.0,-52.0)">
     <path d="M 13.999993000000583 -1.3999997666674889e-2 A 14.0 14.0 0 1 0 14.0 0.0"/>
    </g>
   </g>
   <g style="stroke:rgb(204,0,0);fill:rgb(204,0,0);text-anchor:middle;font-family:Arial;font-size:17.5px">
    <g transform="translate(522.0,-58.0)">
     <g transform="scale(1 -1)">
      <text>1</text>
     </g>
    </g>
   </g>
   <g style="stroke:rgb(153,153,153);fill:rgb(153,153,153);stroke-width:1.5">
    <polygon points="529.0,-83.0 529.0,-77.0 535.0,-77.0 535.0,-83.0"/>
   </g>
   <g style="stroke:rgb(102,178,104);fill:rgb(175,244,175);stroke-width:1.5">
    <polygon points="528.0,-82.0 528.0,-76.0 534.0,-76.0 534.0,-82.0"/>
   </g>
   <g style="stroke:rgb(153,153,153);fill:rgb(153,153,153);stroke-width:1.5">
    <polygon points="511.0,-83.0 511.0,-77.0 517.0,-77.0 517.0,-83.0"/>
   </g>
   <g style="stroke:rgb(102,178,104);fill:rgb(175,244,175);stroke-width:1.5">
    <polygon points="510.0,-82.0 510.0,-76.0 516.0,-76.0 516.0,-82.0"/>
   </g>
   <g style="stroke:rgb(153,153,153);fill:rgb(153,153,153)">
    <g transform="translate(452.0186767578125,-54.0)">
     <path d="M 13.999993000000583 -1.3999997666674889e-2 A 14.0 14.0 0 1 0 14.0 0.0"/>
    </g>
   </g>
   <g style="stroke:rgb(0,112,191);stroke-width:2.0">
    <g transform="translate(450.0186767578125,-52.0)">
     <line x1="0" y1="0" x2="35.9813232421875" y2="-38.0"/>
    </g>
    <g transform="translate(450.0186767578125,-52.0)">
     <line x1="0" y1="0" x2="-35.9813232421875" y2="-38.0"/>
    </g>
   </g>
   <g style="stroke:rgb(102,178,104);fill:rgb(175,244,175);stroke-width:2.5">
    <g transform="translate(450.0186767578125,-52.0)">
     <path d="M 13.999993000000583 -1.3999997666674889e-2 A 14.0 14.0 0 1 0 14.0 0.0"/>
    </g>
   </g>
   <g style="stroke:rgb(204,0,0);fill:rgb(204,0,0);text-anchor:middle;font-family:Arial;font-size:17.5px">
    <g transform="translate(450.0186767578125,-58.0)">
     <g transform="scale(1 -1)">
      <text>0</text>
     </g>
    </g>
   </g>
   <g style="stroke:rgb(153,153,153);fill:rgb(153,153,153)">
    <g transform="translate(488.0,-92.0)">
     <path d="M 13.999993000000583 -1.3999997666674889e-2 A 14.0 14.0 0 1 0 14.0 0.0"/>
    </g>
   </g>
   <g style="stroke:rgb(0,112,191);stroke-width:2.0">
    <g transform="translate(486.0,-90.0)">
     <line x1="0" y1="0" x2="9.0" y2="-27.0"/>
    </g>
    <g transform="translate(486.0,-90.0)">
     <line x1="0" y1="0" x2="-9.0" y2="-27.0"/>
    </g>
   </g>
   <g style="stroke:rgb(102,178,104);fill:rgb(175,244,175);stroke-width:2.5">
    <g transform="translate(486.0,-90.0)">
     <path d="M 13.999993000000583 -1.3999997666674889e-2 A 14.0 14.0 0 1 0 14.0 0.0"/>
    </g>
   </g>
   <g style="stroke:rgb(204,0,0);fill:rgb(204,0,0);text-anchor:middle;font-family:Arial;font-size:17.5px">
    <g transform="translate(486.0,-96.0)">
     <g transform="scale(1 -1)">
      <text>3</text>
     </g>
    </g>
   </g>
   <g style="stroke:rgb(153,153,153);fill:rgb(153,153,153);stroke-width:1.5">
    <polygon points="493.0,-121.0 493.0,-115.0 499.0,-115.0 499.0,-121.0"/>
   </g>
   <g style="stroke:rgb(102,178,104);fill:rgb(175,244,175);stroke-width:1.5">
    <polygon points="492.0,-120.0 492.0,-114.0 498.0,-114.0 498.0,-120.0"/>
   </g>
   <g style="stroke:rgb(153,153,153);fill:rgb(153,153,153);stroke-width:1.5">
    <polygon points="475.0,-121.0 475.0,-115.0 481.0,-115.0 481.0,-121.0"/>
   </g>
   <g style="stroke:rgb(102,178,104);fill:rgb(175,244,175);stroke-width:1.5">
    <polygon points="474.0,-120.0 474.0,-114.0 480.0,-114.0 480.0,-120.0"/>
   </g>
   <g style="stroke:rgb(153,153,153);fill:rgb(153,153,153)">
    <g transform="translate(416.037353515625,-92.0)">
     <path d="M 13.999993000000583 -1.3999997666674889e-2 A 14.0 14.0 0 1 0 14.0 0.0"/>
    </g>
   </g>
   <g style="stroke:rgb(0,112,191);stroke-width:2.0">
    <g transform="translate(414.037353515625,-90.0)">
     <line x1="0" y1="0" x2="35.962646484375" y2="-38.0"/>
    </g>
    <g transform="translate(414.037353515625,-90.0)">
     <line x1="0" y1="0" x2="-35.962646484375" y2="-38.0"/>
    </g>
   </g>
   <g style="stroke:rgb(102,178,104);fill:rgb(175,244,175);stroke-width:2.5">
    <g transform="translate(414.037353515625,-90.0)">
     <path d="M 13.999993000000583 -1.3999997666674889e-2 A 14.0 14.0 0 1 0 14.0 0.0"/>
    </g>
   </g>
   <g style="stroke:rgb(204,0,0);fill:rgb(204,0,0);text-anchor:middle;font-family:Arial;font-size:17.5px">
    <g transform="translate(414.037353515625,-96.0)">
     <g transform="scale(1 -1)">
      <text>0</text>
     </g>
    </g>
   </g>
   <g style="stroke:rgb(153,153,153);fill:rgb(153,153,153)">
    <g transform="translate(452.0,-130.0)">
     <path d="M 13.999993000000583 -1.3999997666674889e-2 A 14.0 14.0 0 1 0 14.0 0.0"/>
    </g>
   </g>
   <g style="stroke:rgb(0,112,191);stroke-width:2.0">
    <g transform="translate(450.0,-128.0)">
     <line x1="0" y1="0" x2="9.0" y2="-27.0"/>
    </g>
    <g transform="translate(450.0,-128.0)">
     <line x1="0" y1="0" x2="-9.0" y2="-27.0"/>
    </g>
   </g>
   <g style="stroke:rgb(102,178,104);fill:rgb(175,244,175);stroke-width:2.5">
    <g transform="translate(450.0,-128.0)">
     <path d="M 13.999993000000583 -1.3999997666674889e-2 A 14.0 14.0 0 1 0 14.0 0.0"/>
    </g>
   </g>
   <g style="stroke:rgb(204,0,0);fill:rgb(204,0,0);text-anchor:middle;font-family:Arial;font-size:17.5px">
    <g transform="translate(450.0,-134.0)">
     <g transform="scale(1 -1)">
      <text>1</text>
     </g>
    </g>
   </g>
   <g style="stroke:rgb(153,153,153);fill:rgb(153,153,153);stroke-width:1.5">
    <polygon points="457.0,-159.0 457.0,-153.0 463.0,-153.0 463.0,-159.0"/>
   </g>
   <g style="stroke:rgb(102,178,104);fill:rgb(175,244,175);stroke-width:1.5">
    <polygon points="456.0,-158.0 456.0,-152.0 462.0,-152.0 462.0,-158.0"/>
   </g>
   <g style="stroke:rgb(153,153,153);fill:rgb(153,153,153);stroke-width:1.5">
    <polygon points="439.0,-159.0 439.0,-153.0 445.0,-153.0 445.0,-159.0"/>
   </g>
   <g style="stroke:rgb(102,178,104);fill:rgb(175,244,175);stroke-width:1.5">
    <polygon points="438.0,-158.0 438.0,-152.0 444.0,-152.0 444.0,-158.0"/>
   </g>
   <g style="stroke:rgb(153,153,153);fill:rgb(153,153,153)">
    <g transform="translate(380.07470703125,-130.0)">
     <path d="M 13.999993000000583 -1.3999997666674889e-2 A 14.0 14.0 0 1 0 14.0 0.0"/>
    </g>
   </g>
   <g style="stroke:rgb(0,112,191);stroke-width:2.0">
    <g transform="translate(378.07470703125,-128.0)">
     <line x1="0" y1="0" x2="35.92529296875" y2="-38.0"/>
    </g>
    <g transform="translate(378.07470703125,-128.0)">
     <line x1="0" y1="0" x2="-35.92529296875" y2="-38.0"/>
    </g>
   </g>
   <g style="stroke:rgb(102,178,104);fill:rgb(175,244,175);stroke-width:2.5">
    <g transform="translate(378.07470703125,-128.0)">
     <path d="M 13.999993000000583 -1.3999997666674889e-2 A 14.0 14.0 0 1 0 14.0 0.0"/>
    </g>
   </g>
   <g style="stroke:rgb(204,0,0);fill:rgb(204,0,0);text-anchor:middle;font-family:Arial;font-size:17.5px">
    <g transform="translate(378.07470703125,-134.0)">
     <g transform="scale(1 -1)">
      <text>1</text>
     </g>
    </g>
   </g>
   <g style="stroke:rgb(153,153,153);fill:rgb(153,153,153)">
    <g transform="translate(416.0,-168.0)">
     <path d="M 13.999993000000583 -1.3999997666674889e-2 A 14.0 14.0 0 1 0 14.0 0.0"/>
    </g>
   </g>
   <g style="stroke:rgb(0,112,191);stroke-width:2.0">
    <g transform="translate(414.0,-166.0)">
     <line x1="0" y1="0" x2="9.0" y2="-27.0"/>
    </g>
    <g transform="translate(414.0,-166.0)">
     <line x1="0" y1="0" x2="-9.0" y2="-27.0"/>
    </g>
   </g>
   <g style="stroke:rgb(102,178,104);fill:rgb(175,244,175);stroke-width:2.5">
    <g transform="translate(414.0,-166.0)">
     <path d="M 13.999993000000583 -1.3999997666674889e-2 A 14.0 14.0 0 1 0 14.0 0.0"/>
    </g>
   </g>
   <g style="stroke:rgb(204,0,0);fill:rgb(204,0,0);text-anchor:middle;font-family:Arial;font-size:17.5px">
    <g transform="translate(414.0,-172.0)">
     <g transform="scale(1 -1)">
      <text>1</text>
     </g>
    </g>
   </g>
   <g style="stroke:rgb(153,153,153);fill:rgb(153,153,153);stroke-width:1.5">
    <polygon points="421.0,-197.0 421.0,-191.0 427.0,-191.0 427.0,-197.0"/>
   </g>
   <g style="stroke:rgb(102,178,104);fill:rgb(175,244,175);stroke-width:1.5">
    <polygon points="420.0,-196.0 420.0,-190.0 426.0,-190.0 426.0,-196.0"/>
   </g>
   <g style="stroke:rgb(153,153,153);fill:rgb(153,153,153);stroke-width:1.5">
    <polygon points="403.0,-197.0 403.0,-191.0 409.0,-191.0 409.0,-197.0"/>
   </g>
   <g style="stroke:rgb(102,178,104);fill:rgb(175,244,175);stroke-width:1.5">
    <polygon points="402.0,-196.0 402.0,-190.0 408.0,-190.0 408.0,-196.0"/>
   </g>
   <g style="stroke:rgb(153,153,153);fill:rgb(153,153,153)">
    <g transform="translate(344.1494140625,-168.0)">
     <path d="M 13.999993000000583 -1.3999997666674889e-2 A 14.0 14.0 0 1 0 14.0 0.0"/>
    </g>
   </g>
   <g style="stroke:rgb(0,112,191);stroke-width:2.0">
    <g transform="translate(342.1494140625,-166.0)">
     <line x1="0" y1="0" x2="35.8505859375" y2="-38.0"/>
    </g>
    <g transform="translate(342.1494140625,-166.0)">
     <line x1="0" y1="0" x2="-35.8505859375" y2="-38.0"/>
    </g>
   </g>
   <g style="stroke:rgb(102,178,104);fill:rgb(175,244,175);stroke-width:2.5">
    <g transform="translate(342.1494140625,-166.0)">
     <path d="M 13.999993000000583 -1.3999997666674889e-2 A 14.0 14.0 0 1 0 14.0 0.0"/>
    </g>
   </g>
   <g style="stroke:rgb(204,0,0);fill:rgb(204,0,0);text-anchor:middle;font-family:Arial;font-size:17.5px">
    <g transform="translate(342.1494140625,-172.0)">
     <g transform="scale(1 -1)">
      <text>1</text>
     </g>
    </g>
   </g>
   <g style="stroke:rgb(153,153,153);fill:rgb(153,153,153)">
    <g transform="translate(380.0,-206.0)">
     <path d="M 13.999993000000583 -1.3999997666674889e-2 A 14.0 14.0 0 1 0 14.0 0.0"/>
    </g>
   </g>
   <g style="stroke:rgb(0,112,191);stroke-width:2.0">
    <g transform="translate(378.0,-204.0)">
     <line x1="0" y1="0" x2="9.0" y2="-27.0"/>
    </g>
    <g transform="translate(378.0,-204.0)">
     <line x1="0" y1="0" x2="-9.0" y2="-27.0"/>
    </g>
   </g>
   <g style="stroke:rgb(102,178,104);fill:rgb(175,244,175);stroke-width:2.5">
    <g transform="translate(378.0,-204.0)">
     <path d="M 13.999993000000583 -1.3999997666674889e-2 A 14.0 14.0 0 1 0 14.0 0.0"/>
    </g>
   </g>
   <g style="stroke:rgb(204,0,0);fill:rgb(204,0,0);text-anchor:middle;font-family:Arial;font-size:17.5px">
    <g transform="translate(378.0,-210.0)">
     <g transform="scale(1 -1)">
      <text>4</text>
     </g>
    </g>
   </g>
   <g style="stroke:rgb(153,153,153);fill:rgb(153,153,153);stroke-width:1.5">
    <polygon points="385.0,-235.0 385.0,-229.0 391.0,-229.0 391.0,-235.0"/>
   </g>
   <g style="stroke:rgb(102,178,104);fill:rgb(175,244,175);stroke-width:1.5">
    <polygon points="384.0,-234.0 384.0,-228.0 390.0,-228.0 390.0,-234.0"/>
   </g>
   <g style="stroke:rgb(153,153,153);fill:rgb(153,153,153);stroke-width:1.5">
    <polygon points="367.0,-235.0 367.0,-229.0 373.0,-229.0 373.0,-235.0"/>
   </g>
   <g style="stroke:rgb(102,178,104);fill:rgb(175,244,175);stroke-width:1.5">
    <polygon points="366.0,-234.0 366.0,-228.0 372.0,-228.0 372.0,-234.0"/>
   </g>
   <g style="stroke:rgb(153,153,153);fill:rgb(153,153,153)">
    <g transform="translate(308.298828125,-206.0)">
     <path d="M 13.999993000000583 -1.3999997666674889e-2 A 14.0 14.0 0 1 0 14.0 0.0"/>
    </g>
   </g>
   <g style="stroke:rgb(0,112,191);stroke-width:2.0">
    <g transform="translate(306.298828125,-204.0)">
     <line x1="0" y1="0" x2="35.701171875" y2="-38.0"/>
    </g>
    <g transform="translate(306.298828125,-204.0)">
     <line x1="0" y1="0" x2="-35.701171875" y2="-38.0"/>
    </g>
   </g>
   <g style="stroke:rgb(102,178,104);fill:rgb(175,244,175);stroke-width:2.5">
    <g transform="translate(306.298828125,-204.0)">
     <path d="M 13.999993000000583 -1.3999997666674889e-2 A 14.0 14.0 0 1 0 14.0 0.0"/>
    </g>
   </g>
   <g style="stroke:rgb(204,0,0);fill:rgb(204,0,0);text-anchor:middle;font-family:Arial;font-size:17.5px">
    <g transform="translate(306.298828125,-210.0)">
     <g transform="scale(1 -1)">
      <text>1</text>
     </g>
    </g>
   </g>
   <g style="stroke:rgb(153,153,153);fill:rgb(153,153,153)">
    <g transform="translate(344.0,-244.0)">
     <path d="M 13.999993000000583 -1.3999997666674889e-2 A 14.0 14.0 0 1 0 14.0 0.0"/>
    </g>
   </g>
   <g style="stroke:rgb(0,112,191);stroke-width:2.0">
    <g transform="translate(342.0,-242.0)">
     <line x1="0" y1="0" x2="9.0" y2="-27.0"/>
    </g>
    <g transform="translate(342.0,-242.0)">
     <line x1="0" y1="0" x2="-9.0" y2="-27.0"/>
    </g>
   </g>
   <g style="stroke:rgb(102,178,104);fill:rgb(175,244,175);stroke-width:2.5">
    <g transform="translate(342.0,-242.0)">
     <path d="M 13.999993000000583 -1.3999997666674889e-2 A 14.0 14.0 0 1 0 14.0 0.0"/>
    </g>
   </g>
   <g style="stroke:rgb(204,0,0);fill:rgb(204,0,0);text-anchor:middle;font-family:Arial;font-size:17.5px">
    <g transform="translate(342.0,-248.0)">
     <g transform="scale(1 -1)">
      <text>6</text>
     </g>
    </g>
   </g>
   <g style="stroke:rgb(153,153,153);fill:rgb(153,153,153);stroke-width:1.5">
    <polygon points="349.0,-273.0 349.0,-267.0 355.0,-267.0 355.0,-273.0"/>
   </g>
   <g style="stroke:rgb(102,178,104);fill:rgb(175,244,175);stroke-width:1.5">
    <polygon points="348.0,-272.0 348.0,-266.0 354.0,-266.0 354.0,-272.0"/>
   </g>
   <g style="stroke:rgb(153,153,153);fill:rgb(153,153,153);stroke-width:1.5">
    <polygon points="331.0,-273.0 331.0,-267.0 337.0,-267.0 337.0,-273.0"/>
   </g>
   <g style="stroke:rgb(102,178,104);fill:rgb(175,244,175);stroke-width:1.5">
    <polygon points="330.0,-272.0 330.0,-266.0 336.0,-266.0 336.0,-272.0"/>
   </g>
   <g style="stroke:rgb(153,153,153);fill:rgb(153,153,153)">
    <g transform="translate(272.59765625,-244.0)">
     <path d="M 13.999993000000583 -1.3999997666674889e-2 A 14.0 14.0 0 1 0 14.0 0.0"/>
    </g>
   </g>
   <g style="stroke:rgb(0,112,191);stroke-width:2.0">
    <g transform="translate(270.59765625,-242.0)">
     <line x1="0" y1="0" x2="35.40234375" y2="-38.0"/>
    </g>
    <g transform="translate(270.59765625,-242.0)">
     <line x1="0" y1="0" x2="-35.40234375" y2="-38.0"/>
    </g>
   </g>
   <g style="stroke:rgb(102,178,104);fill:rgb(175,244,175);stroke-width:2.5">
    <g transform="translate(270.59765625,-242.0)">
     <path d="M 13.999993000000583 -1.3999997666674889e-2 A 14.0 14.0 0 1 0 14.0 0.0"/>
    </g>
   </g>
   <g style="stroke:rgb(204,0,0);fill:rgb(204,0,0);text-anchor:middle;font-family:Arial;font-size:17.5px">
    <g transform="translate(270.59765625,-248.0)">
     <g transform="scale(1 -1)">
      <text>1</text>
     </g>
    </g>
   </g>
   <g style="stroke:rgb(153,153,153);fill:rgb(153,153,153)">
    <g transform="translate(308.0,-282.0)">
     <path d="M 13.999993000000583 -1.3999997666674889e-2 A 14.0 14.0 0 1 0 14.0 0.0"/>
    </g>
   </g>
   <g style="stroke:rgb(0,112,191);stroke-width:2.0">
    <g transform="translate(306.0,-280.0)">
     <line x1="0" y1="0" x2="9.0" y2="-27.0"/>
    </g>
    <g transform="translate(306.0,-280.0)">
     <line x1="0" y1="0" x2="-9.0" y2="-27.0"/>
    </g>
   </g>
   <g style="stroke:rgb(102,178,104);fill:rgb(175,244,175);stroke-width:2.5">
    <g transform="translate(306.0,-280.0)">
     <path d="M 13.999993000000583 -1.3999997666674889e-2 A 14.0 14.0 0 1 0 14.0 0.0"/>
    </g>
   </g>
   <g style="stroke:rgb(204,0,0);fill:rgb(204,0,0);text-anchor:middle;font-family:Arial;font-size:17.5px">
    <g transform="translate(306.0,-286.0)">
     <g transform="scale(1 -1)">
      <text>4</text>
     </g>
    </g>
   </g>
   <g style="stroke:rgb(153,153,153);fill:rgb(153,153,153);stroke-width:1.5">
    <polygon points="313.0,-311.0 313.0,-305.0 319.0,-305.0 319.0,-311.0"/>
   </g>
   <g style="stroke:rgb(102,178,104);fill:rgb(175,244,175);stroke-width:1.5">
    <polygon points="312.0,-310.0 312.0,-304.0 318.0,-304.0 318.0,-310.0"/>
   </g>
   <g style="stroke:rgb(153,153,153);fill:rgb(153,153,153);stroke-width:1.5">
    <polygon points="295.0,-311.0 295.0,-305.0 301.0,-305.0 301.0,-311.0"/>
   </g>
   <g style="stroke:rgb(102,178,104);fill:rgb(175,244,175);stroke-width:1.5">
    <polygon points="294.0,-310.0 294.0,-304.0 300.0,-304.0 300.0,-310.0"/>
   </g>
   <g style="stroke:rgb(153,153,153);fill:rgb(153,153,153)">
    <g transform="translate(237.1953125,-282.0)">
     <path d="M 13.999993000000583 -1.3999997666674889e-2 A 14.0 14.0 0 1 0 14.0 0.0"/>
    </g>
   </g>
   <g style="stroke:rgb(0,112,191);stroke-width:2.0">
    <g transform="translate(235.1953125,-280.0)">
     <line x1="0" y1="0" x2="34.8046875" y2="-38.0"/>
    </g>
    <g transform="translate(235.1953125,-280.0)">
     <line x1="0" y1="0" x2="-34.8046875" y2="-38.0"/>
    </g>
   </g>
   <g style="stroke:rgb(102,178,104);fill:rgb(175,244,175);stroke-width:2.5">
    <g transform="translate(235.1953125,-280.0)">
     <path d="M 13.999993000000583 -1.3999997666674889e-2 A 14.0 14.0 0 1 0 14.0 0.0"/>
    </g>
   </g>
   <g style="stroke:rgb(204,0,0);fill:rgb(204,0,0);text-anchor:middle;font-family:Arial;font-size:17.5px">
    <g transform="translate(235.1953125,-286.0)">
     <g transform="scale(1 -1)">
      <text>1</text>
     </g>
    </g>
   </g>
   <g style="stroke:rgb(153,153,153);fill:rgb(153,153,153)">
    <g transform="translate(272.0,-320.0)">
     <path d="M 13.999993000000583 -1.3999997666674889e-2 A 14.0 14.0 0 1 0 14.0 0.0"/>
    </g>
   </g>
   <g style="stroke:rgb(0,112,191);stroke-width:2.0">
    <g transform="translate(270.0,-318.0)">
     <line x1="0" y1="0" x2="9.0" y2="-27.0"/>
    </g>
    <g transform="translate(270.0,-318.0)">
     <line x1="0" y1="0" x2="-9.0" y2="-27.0"/>
    </g>
   </g>
   <g style="stroke:rgb(102,178,104);fill:rgb(175,244,175);stroke-width:2.5">
    <g transform="translate(270.0,-318.0)">
     <path d="M 13.999993000000583 -1.3999997666674889e-2 A 14.0 14.0 0 1 0 14.0 0.0"/>
    </g>
   </g>
   <g style="stroke:rgb(204,0,0);fill:rgb(204,0,0);text-anchor:middle;font-family:Arial;font-size:17.5px">
    <g transform="translate(270.0,-324.0)">
     <g transform="scale(1 -1)">
      <text>1</text>
     </g>
    </g>
   </g>
   <g style="stroke:rgb(153,153,153);fill:rgb(153,153,153);stroke-width:1.5">
    <polygon points="277.0,-349.0 277.0,-343.0 283.0,-343.0 283.0,-349.0"/>
   </g>
   <g style="stroke:rgb(102,178,104);fill:rgb(175,244,175);stroke-width:1.5">
    <polygon points="276.0,-348.0 276.0,-342.0 282.0,-342.0 282.0,-348.0"/>
   </g>
   <g style="stroke:rgb(153,153,153);fill:rgb(153,153,153);stroke-width:1.5">
    <polygon points="259.0,-349.0 259.0,-343.0 265.0,-343.0 265.0,-349.0"/>
   </g>
   <g style="stroke:rgb(102,178,104);fill:rgb(175,244,175);stroke-width:1.5">
    <polygon points="258.0,-348.0 258.0,-342.0 264.0,-342.0 264.0,-348.0"/>
   </g>
   <g style="stroke:rgb(153,153,153);fill:rgb(153,153,153)">
    <g transform="translate(202.390625,-320.0)">
     <path d="M 13.999993000000583 -1.3999997666674889e-2 A 14.0 14.0 0 1 0 14.0 0.0"/>
    </g>
   </g>
   <g style="stroke:rgb(0,112,191);stroke-width:2.0">
    <g transform="translate(200.390625,-318.0)">
     <line x1="0" y1="0" x2="33.609375" y2="-38.0"/>
    </g>
    <g transform="translate(200.390625,-318.0)">
     <line x1="0" y1="0" x2="-33.609375" y2="-38.0"/>
    </g>
   </g>
   <g style="stroke:rgb(102,178,104);fill:rgb(175,244,175);stroke-width:2.5">
    <g transform="translate(200.390625,-318.0)">
     <path d="M 13.999993000000583 -1.3999997666674889e-2 A 14.0 14.0 0 1 0 14.0 0.0"/>
    </g>
   </g>
   <g style="stroke:rgb(204,0,0);fill:rgb(204,0,0);text-anchor:middle;font-family:Arial;font-size:17.5px">
    <g transform="translate(200.390625,-324.0)">
     <g transform="scale(1 -1)">
      <text>3</text>
     </g>
    </g>
   </g>
   <g style="stroke:rgb(153,153,153);fill:rgb(153,153,153)">
    <g transform="translate(236.0,-358.0)">
     <path d="M 13.999993000000583 -1.3999997666674889e-2 A 14.0 14.0 0 1 0 14.0 0.0"/>
    </g>
   </g>
   <g style="stroke:rgb(0,112,191);stroke-width:2.0">
    <g transform="translate(234.0,-356.0)">
     <line x1="0" y1="0" x2="9.0" y2="-27.0"/>
    </g>
    <g transform="translate(234.0,-356.0)">
     <line x1="0" y1="0" x2="-9.0" y2="-27.0"/>
    </g>
   </g>
   <g style="stroke:rgb(102,178,104);fill:rgb(175,244,175);stroke-width:2.5">
    <g transform="translate(234.0,-356.0)">
     <path d="M 13.999993000000583 -1.3999997666674889e-2 A 14.0 14.0 0 1 0 14.0 0.0"/>
    </g>
   </g>
   <g style="stroke:rgb(204,0,0);fill:rgb(204,0,0);text-anchor:middle;font-family:Arial;font-size:17.5px">
    <g transform="translate(234.0,-362.0)">
     <g transform="scale(1 -1)">
      <text>3</text>
     </g>
    </g>
   </g>
   <g style="stroke:rgb(153,153,153);fill:rgb(153,153,153);stroke-width:1.5">
    <polygon points="241.0,-387.0 241.0,-381.0 247.0,-381.0 247.0,-387.0"/>
   </g>
   <g style="stroke:rgb(102,178,104);fill:rgb(175,244,175);stroke-width:1.5">
    <polygon points="240.0,-386.0 240.0,-380.0 246.0,-380.0 246.0,-386.0"/>
   </g>
   <g style="stroke:rgb(153,153,153);fill:rgb(153,153,153);stroke-width:1.5">
    <polygon points="223.0,-387.0 223.0,-381.0 229.0,-381.0 229.0,-387.0"/>
   </g>
   <g style="stroke:rgb(102,178,104);fill:rgb(175,244,175);stroke-width:1.5">
    <polygon points="222.0,-386.0 222.0,-380.0 228.0,-380.0 228.0,-386.0"/>
   </g>
   <g style="stroke:rgb(153,153,153);fill:rgb(153,153,153)">
    <g transform="translate(168.78125,-358.0)">
     <path d="M 13.999993000000583 -1.3999997666674889e-2 A 14.0 14.0 0 1 0 14.0 0.0"/>
    </g>
   </g>
   <g style="stroke:rgb(0,112,191);stroke-width:2.0">
    <g transform="translate(166.78125,-356.0)">
     <line x1="0" y1="0" x2="31.21875" y2="-38.0"/>
    </g>
    <g transform="translate(166.78125,-356.0)">
     <line x1="0" y1="0" x2="-31.21875" y2="-38.0"/>
    </g>
   </g>
   <g style="stroke:rgb(102,178,104);fill:rgb(175,244,175);stroke-width:2.5">
    <g transform="translate(166.78125,-356.0)">
     <path d="M 13.999993000000583 -1.3999997666674889e-2 A 14.0 14.0 0 1 0 14.0 0.0"/>
    </g>
   </g>
   <g style="stroke:rgb(204,0,0);fill:rgb(204,0,0);text-anchor:middle;font-family:Arial;font-size:17.5px">
    <g transform="translate(166.78125,-362.0)">
     <g transform="scale(1 -1)">
      <text>3</text>
     </g>
    </g>
   </g>
   <g style="stroke:rgb(153,153,153);fill:rgb(153,153,153)">
    <g transform="translate(200.0,-396.0)">
     <path d="M 13.999993000000583 -1.3999997666674889e-2 A 14.0 14.0 0 1 0 14.0 0.0"/>
    </g>
   </g>
   <g style="stroke:rgb(0,112,191);stroke-width:2.0">
    <g transform="translate(198.0,-394.0)">
     <line x1="0" y1="0" x2="9.0" y2="-27.0"/>
    </g>
    <g transform="translate(198.0,-394.0)">
     <line x1="0" y1="0" x2="-9.0" y2="-27.0"/>
    </g>
   </g>
   <g style="stroke:rgb(102,178,104);fill:rgb(175,244,175);stroke-width:2.5">
    <g transform="translate(198.0,-394.0)">
     <path d="M 13.999993000000583 -1.3999997666674889e-2 A 14.0 14.0 0 1 0 14.0 0.0"/>
    </g>
   </g>
   <g style="stroke:rgb(204,0,0);fill:rgb(204,0,0);text-anchor:middle;font-family:Arial;font-size:17.5px">
    <g transform="translate(198.0,-400.0)">
     <g transform="scale(1 -1)">
      <text>5</text>
     </g>
    </g>
   </g>
   <g style="stroke:rgb(153,153,153);fill:rgb(153,153,153);stroke-width:1.5">
    <polygon points="205.0,-425.0 205.0,-419.0 211.0,-419.0 211.0,-425.0"/>
   </g>
   <g style="stroke:rgb(102,178,104);fill:rgb(175,244,175);stroke-width:1.5">
    <polygon points="204.0,-424.0 204.0,-418.0 210.0,-418.0 210.0,-424.0"/>
   </g>
   <g style="stroke:rgb(153,153,153);fill:rgb(153,153,153);stroke-width:1.5">
    <polygon points="187.0,-425.0 187.0,-419.0 193.0,-419.0 193.0,-425.0"/>
   </g>
   <g style="stroke:rgb(102,178,104);fill:rgb(175,244,175);stroke-width:1.5">
    <polygon points="186.0,-424.0 186.0,-418.0 192.0,-418.0 192.0,-424.0"/>
   </g>
   <g style="stroke:rgb(153,153,153);fill:rgb(153,153,153)">
    <g transform="translate(137.5625,-396.0)">
     <path d="M 13.999993000000583 -1.3999997666674889e-2 A 14.0 14.0 0 1 0 14.0 0.0"/>
    </g>
   </g>
   <g style="stroke:rgb(0,112,191);stroke-width:2.0">
    <g transform="translate(135.5625,-394.0)">
     <line x1="0" y1="0" x2="26.4375" y2="-38.0"/>
    </g>
    <g transform="translate(135.5625,-394.0)">
     <line x1="0" y1="0" x2="-26.4375" y2="-38.0"/>
    </g>
   </g>
   <g style="stroke:rgb(102,178,104);fill:rgb(175,244,175);stroke-width:2.5">
    <g transform="translate(135.5625,-394.0)">
     <path d="M 13.999993000000583 -1.3999997666674889e-2 A 14.0 14.0 0 1 0 14.0 0.0"/>
    </g>
   </g>
   <g style="stroke:rgb(204,0,0);fill:rgb(204,0,0);text-anchor:middle;font-family:Arial;font-size:17.5px">
    <g transform="translate(135.5625,-400.0)">
     <g transform="scale(1 -1)">
      <text>3</text>
     </g>
    </g>
   </g>
   <g style="stroke:rgb(153,153,153);fill:rgb(153,153,153)">
    <g transform="translate(164.0,-434.0)">
     <path d="M 13.999993000000583 -1.3999997666674889e-2 A 14.0 14.0 0 1 0 14.0 0.0"/>
    </g>
   </g>
   <g style="stroke:rgb(0,112,191);stroke-width:2.0">
    <g transform="translate(162.0,-432.0)">
     <line x1="0" y1="0" x2="9.0" y2="-27.0"/>
    </g>
    <g transform="translate(162.0,-432.0)">
     <line x1="0" y1="0" x2="-9.0" y2="-27.0"/>
    </g>
   </g>
   <g style="stroke:rgb(102,178,104);fill:rgb(175,244,175);stroke-width:2.5">
    <g transform="translate(162.0,-432.0)">
     <path d="M 13.999993000000583 -1.3999997666674889e-2 A 14.0 14.0 0 1 0 14.0 0.0"/>
    </g>
   </g>
   <g style="stroke:rgb(204,0,0);fill:rgb(204,0,0);text-anchor:middle;font-family:Arial;font-size:17.5px">
    <g transform="translate(162.0,-438.0)">
     <g transform="scale(1 -1)">
      <text>8</text>
     </g>
    </g>
   </g>
   <g style="stroke:rgb(153,153,153);fill:rgb(153,153,153);stroke-width:1.5">
    <polygon points="169.0,-463.0 169.0,-457.0 175.0,-457.0 175.0,-463.0"/>
   </g>
   <g style="stroke:rgb(102,178,104);fill:rgb(175,244,175);stroke-width:1.5">
    <polygon points="168.0,-462.0 168.0,-456.0 174.0,-456.0 174.0,-462.0"/>
   </g>
   <g style="stroke:rgb(153,153,153);fill:rgb(153,153,153);stroke-width:1.5">
    <polygon points="151.0,-463.0 151.0,-457.0 157.0,-457.0 157.0,-463.0"/>
   </g>
   <g style="stroke:rgb(102,178,104);fill:rgb(175,244,175);stroke-width:1.5">
    <polygon points="150.0,-462.0 150.0,-456.0 156.0,-456.0 156.0,-462.0"/>
   </g>
   <g style="stroke:rgb(153,153,153);fill:rgb(153,153,153)">
    <g transform="translate(111.125,-434.0)">
     <path d="M 13.999993000000583 -1.3999997666674889e-2 A 14.0 14.0 0 1 0 14.0 0.0"/>
    </g>
   </g>
   <g style="stroke:rgb(0,112,191);stroke-width:2.0">
    <g transform="translate(109.125,-432.0)">
     <line x1="0" y1="0" x2="25.875" y2="-27.0"/>
    </g>
    <g transform="translate(109.125,-432.0)">
     <line x1="0" y1="0" x2="-25.875" y2="-38.0"/>
    </g>
   </g>
   <g style="stroke:rgb(102,178,104);fill:rgb(175,244,175);stroke-width:2.5">
    <g transform="translate(109.125,-432.0)">
     <path d="M 13.999993000000583 -1.3999997666674889e-2 A 14.0 14.0 0 1 0 14.0 0.0"/>
    </g>
   </g>
   <g style="stroke:rgb(204,0,0);fill:rgb(204,0,0);text-anchor:middle;font-family:Arial;font-size:17.5px">
    <g transform="translate(109.125,-438.0)">
     <g transform="scale(1 -1)">
      <text>3</text>
     </g>
    </g>
   </g>
   <g style="stroke:rgb(153,153,153);fill:rgb(153,153,153);stroke-width:1.5">
    <polygon points="133.0,-463.0 133.0,-457.0 139.0,-457.0 139.0,-463.0"/>
   </g>
   <g style="stroke:rgb(102,178,104);fill:rgb(175,244,175);stroke-width:1.5">
    <polygon points="132.0,-462.0 132.0,-456.0 138.0,-456.0 138.0,-462.0"/>
   </g>
   <g style="stroke:rgb(153,153,153);fill:rgb(153,153,153)">
    <g transform="translate(85.25,-472.0)">
     <path d="M 13.999993000000583 -1.3999997666674889e-2 A 14.0 14.0 0 1 0 14.0 0.0"/>
    </g>
   </g>
   <g style="stroke:rgb(0,112,191);stroke-width:2.0">
    <g transform="translate(83.25,-470.0)">
     <line x1="0" y1="0" x2="24.75" y2="-38.0"/>
    </g>
    <g transform="translate(83.25,-470.0)">
     <line x1="0" y1="0" x2="-24.75" y2="-38.0"/>
    </g>
   </g>
   <g style="stroke:rgb(102,178,104);fill:rgb(175,244,175);stroke-width:2.5">
    <g transform="translate(83.25,-470.0)">
     <path d="M 13.999993000000583 -1.3999997666674889e-2 A 14.0 14.0 0 1 0 14.0 0.0"/>
    </g>
   </g>
   <g style="stroke:rgb(204,0,0);fill:rgb(204,0,0);text-anchor:middle;font-family:Arial;font-size:17.5px">
    <g transform="translate(83.25,-476.0)">
     <g transform="scale(1 -1)">
      <text>4</text>
     </g>
    </g>
   </g>
   <g style="stroke:rgb(153,153,153);fill:rgb(153,153,153)">
    <g transform="translate(110.0,-510.0)">
     <path d="M 13.999993000000583 -1.3999997666674889e-2 A 14.0 14.0 0 1 0 14.0 0.0"/>
    </g>
   </g>
   <g style="stroke:rgb(0,112,191);stroke-width:2.0">
    <g transform="translate(108.0,-508.0)">
     <line x1="0" y1="0" x2="9.0" y2="-27.0"/>
    </g>
    <g transform="translate(108.0,-508.0)">
     <line x1="0" y1="0" x2="-9.0" y2="-27.0"/>
    </g>
   </g>
   <g style="stroke:rgb(102,178,104);fill:rgb(175,244,175);stroke-width:2.5">
    <g transform="translate(108.0,-508.0)">
     <path d="M 13.999993000000583 -1.3999997666674889e-2 A 14.0 14.0 0 1 0 14.0 0.0"/>
    </g>
   </g>
   <g style="stroke:rgb(204,0,0);fill:rgb(204,0,0);text-anchor:middle;font-family:Arial;font-size:17.5px">
    <g transform="translate(108.0,-514.0)">
     <g transform="scale(1 -1)">
      <text>4</text>
     </g>
    </g>
   </g>
   <g style="stroke:rgb(153,153,153);fill:rgb(153,153,153);stroke-width:1.5">
    <polygon points="115.0,-539.0 115.0,-533.0 121.0,-533.0 121.0,-539.0"/>
   </g>
   <g style="stroke:rgb(102,178,104);fill:rgb(175,244,175);stroke-width:1.5">
    <polygon points="114.0,-538.0 114.0,-532.0 120.0,-532.0 120.0,-538.0"/>
   </g>
   <g style="stroke:rgb(153,153,153);fill:rgb(153,153,153);stroke-width:1.5">
    <polygon points="97.0,-539.0 97.0,-533.0 103.0,-533.0 103.0,-539.0"/>
   </g>
   <g style="stroke:rgb(102,178,104);fill:rgb(175,244,175);stroke-width:1.5">
    <polygon points="96.0,-538.0 96.0,-532.0 102.0,-532.0 102.0,-538.0"/>
   </g>
   <g style="stroke:rgb(153,153,153);fill:rgb(153,153,153)">
    <g transform="translate(60.5,-510.0)">
     <path d="M 13.999993000000583 -1.3999997666674889e-2 A 14.0 14.0 0 1 0 14.0 0.0"/>
    </g>
   </g>
   <g style="stroke:rgb(0,112,191);stroke-width:2.0">
    <g transform="translate(58.5,-508.0)">
     <line x1="0" y1="0" x2="22.5" y2="-27.0"/>
    </g>
    <g transform="translate(58.5,-508.0)">
     <line x1="0" y1="0" x2="-22.5" y2="-38.0"/>
    </g>
   </g>
   <g style="stroke:rgb(102,178,104);fill:rgb(175,244,175);stroke-width:2.5">
    <g transform="translate(58.5,-508.0)">
     <path d="M 13.999993000000583 -1.3999997666674889e-2 A 14.0 14.0 0 1 0 14.0 0.0"/>
    </g>
   </g>
   <g style="stroke:rgb(204,0,0);fill:rgb(204,0,0);text-anchor:middle;font-family:Arial;font-size:17.5px">
    <g transform="translate(58.5,-514.0)">
     <g transform="scale(1 -1)">
      <text>4</text>
     </g>
    </g>
   </g>
   <g style="stroke:rgb(153,153,153);fill:rgb(153,153,153);stroke-width:1.5">
    <polygon points="79.0,-539.0 79.0,-533.0 85.0,-533.0 85.0,-539.0"/>
   </g>
   <g style="stroke:rgb(102,178,104);fill:rgb(175,244,175);stroke-width:1.5">
    <polygon points="78.0,-538.0 78.0,-532.0 84.0,-532.0 84.0,-538.0"/>
   </g>
   <g style="stroke:rgb(153,153,153);fill:rgb(153,153,153)">
    <g transform="translate(38.0,-548.0)">
     <path d="M 13.999993000000583 -1.3999997666674889e-2 A 14.0 14.0 0 1 0 14.0 0.0"/>
    </g>
   </g>
   <g style="stroke:rgb(0,112,191);stroke-width:2.0">
    <g transform="translate(36.0,-546.0)">
     <line x1="0" y1="0" x2="18.0" y2="-38.0"/>
    </g>
    <g transform="translate(36.0,-546.0)">
     <line x1="0" y1="0" x2="-18.0" y2="-38.0"/>
    </g>
   </g>
   <g style="stroke:rgb(102,178,104);fill:rgb(175,244,175);stroke-width:2.5">
    <g transform="translate(36.0,-546.0)">
     <path d="M 13.999993000000583 -1.3999997666674889e-2 A 14.0 14.0 0 1 0 14.0 0.0"/>
    </g>
   </g>
   <g style="stroke:rgb(204,0,0);fill:rgb(204,0,0);text-anchor:middle;font-family:Arial;font-size:17.5px">
    <g transform="translate(36.0,-552.0)">
     <g transform="scale(1 -1)">
      <text>5</text>
     </g>
    </g>
   </g>
   <g style="stroke:rgb(153,153,153);fill:rgb(153,153,153)">
    <g transform="translate(56.0,-586.0)">
     <path d="M 13.999993000000583 -1.3999997666674889e-2 A 14.0 14.0 0 1 0 14.0 0.0"/>
    </g>
   </g>
   <g style="stroke:rgb(0,112,191);stroke-width:2.0">
    <g transform="translate(54.0,-584.0)">
     <line x1="0" y1="0" x2="9.0" y2="-27.0"/>
    </g>
    <g transform="translate(54.0,-584.0)">
     <line x1="0" y1="0" x2="-9.0" y2="-27.0"/>
    </g>
   </g>
   <g style="stroke:rgb(102,178,104);fill:rgb(175,244,175);stroke-width:2.5">
    <g transform="translate(54.0,-584.0)">
     <path d="M 13.999993000000583 -1.3999997666674889e-2 A 14.0 14.0 0 1 0 14.0 0.0"/>
    </g>
   </g>
   <g style="stroke:rgb(204,0,0);fill:rgb(204,0,0);text-anchor:middle;font-family:Arial;font-size:17.5px">
    <g transform="translate(54.0,-590.0)">
     <g transform="scale(1 -1)">
      <text>5</text>
     </g>
    </g>
   </g>
   <g style="stroke:rgb(153,153,153);fill:rgb(153,153,153);stroke-width:1.5">
    <polygon points="61.0,-615.0 61.0,-609.0 67.0,-609.0 67.0,-615.0"/>
   </g>
   <g style="stroke:rgb(102,178,104);fill:rgb(175,244,175);stroke-width:1.5">
    <polygon points="60.0,-614.0 60.0,-608.0 66.0,-608.0 66.0,-614.0"/>
   </g>
   <g style="stroke:rgb(153,153,153);fill:rgb(153,153,153);stroke-width:1.5">
    <polygon points="43.0,-615.0 43.0,-609.0 49.0,-609.0 49.0,-615.0"/>
   </g>
   <g style="stroke:rgb(102,178,104);fill:rgb(175,244,175);stroke-width:1.5">
    <polygon points="42.0,-614.0 42.0,-608.0 48.0,-608.0 48.0,-614.0"/>
   </g>
   <g style="stroke:rgb(153,153,153);fill:rgb(153,153,153)">
    <g transform="translate(20.0,-586.0)">
     <path d="M 13.999993000000583 -1.3999997666674889e-2 A 14.0 14.0 0 1 0 14.0 0.0"/>
    </g>
   </g>
   <g style="stroke:rgb(0,112,191);stroke-width:2.0">
    <g transform="translate(18.0,-584.0)">
     <line x1="0" y1="0" x2="9.0" y2="-27.0"/>
    </g>
    <g transform="translate(18.0,-584.0)">
     <line x1="0" y1="0" x2="-9.0" y2="-27.0"/>
    </g>
   </g>
   <g style="stroke:rgb(102,178,104);fill:rgb(175,244,175);stroke-width:2.5">
    <g transform="translate(18.0,-584.0)">
     <path d="M 13.999993000000583 -1.3999997666674889e-2 A 14.0 14.0 0 1 0 14.0 0.0"/>
    </g>
   </g>
   <g style="stroke:rgb(204,0,0);fill:rgb(204,0,0);text-anchor:middle;font-family:Arial;font-size:17.5px">
    <g transform="translate(18.0,-590.0)">
     <g transform="scale(1 -1)">
      <text>8</text>
     </g>
    </g>
   </g>
   <g style="stroke:rgb(153,153,153);fill:rgb(153,153,153);stroke-width:1.5">
    <polygon points="25.0,-615.0 25.0,-609.0 31.0,-609.0 31.0,-615.0"/>
   </g>
   <g style="stroke:rgb(102,178,104);fill:rgb(175,244,175);stroke-width:1.5">
    <polygon points="24.0,-614.0 24.0,-608.0 30.0,-608.0 30.0,-614.0"/>
   </g>
   <g style="stroke:rgb(153,153,153);fill:rgb(153,153,153);stroke-width:1.5">
    <polygon points="7.0,-615.0 7.0,-609.0 13.0,-609.0 13.0,-615.0"/>
   </g>
   <g style="stroke:rgb(102,178,104);fill:rgb(175,244,175);stroke-width:1.5">
    <polygon points="6.0,-614.0 6.0,-608.0 12.0,-608.0 12.0,-614.0"/>
   </g>
  </g>
 </g>
</g>
</svg>