<?xml version="1.0" encoding="UTF-8"?> <!DOCTYPE svg PUBLIC "-//W3C//DTD SVG 1.1//EN" "http://www.w3.org/Graphics/SVG/1.1/DTD/svg11.dtd">
<svg xmlns="http://www.w3.org/2000/svg" height="228" width="197" xmlns:xlink="http://www.w3.org/1999/xlink" version="1.11.1" style="shape-rendering:geometricPrecision; text-rendering:geometricPrecision; image-rendering:optimizeQuality; fill-rule:evenodd; clip-rule:evenodd">
<g style="fill:rgb(255,255,255)">
 <polygon points="0.0,0.0 197.0,0.0 197.0,228.0 0.0,228.0"/>
</g>
<g style="stroke:rgb(0,0,0);fill:rgb(255,255,255)">
 <g transform="translate(98.5,114.0) scale(1.0,-1.0)">
  <g transform="translate(-81.0,109.0)">
   <g style="stroke:rgb(153,153,153);fill:rgb(153,153,153)">
    <g transform="translate(112.8125,-16.0)">
     <path d="M 13.999993000000583 -1.3999997666674889e-2 A 14.0 14.0 0 1 0 14.0 0.0"/>
    </g>
   </g>
   <g style="stroke:rgb(0,112,191);stroke-width:2.0">
    <g transform="translate(110.8125,-14.0)">
     <line x1="0" y1="0" x2="33.1875" y2="-38.0"/>
    </g>
    <g transform="translate(110.8125,-14.0)">
     <line x1="0" y1="0" x2="-33.1875" y2="-38.0"/>
    </g>
   </g>
   <g style="stroke:rgb(102,178,104);fill:rgb(175,244,175);stroke-width:2.5">
    <g transform="translate(110.8125,-14.0)">
     <path d="M 13.999993000000583 -1.3999997666674889e-2 A 14.0 14.0 0 1 0 14.0 0.0"/>
    </g>
   </g>
   <g style="stroke:rgb(204,0,0);fill:rgb(204,0,0);text-anchor:middle;font-family:Arial;font-size:17.5px">
    <g transform="translate(110.8125,-20.0)">
     <g transform="scale(1 -1)">
      <text>1</text>
     </g>
    </g>
   </g>
   <g style="stroke:rgb(153,153,153);fill:rgb(153,153,153)">
    <g transform="translate(146.0,-54.0)">
     <path d="M 13.999993000000583 -1.3999997666674889e-2 A 14.0 14.0 0 1 0 14.0 0.0"/>
    </g>
   </g>
   <g style="stroke:rgb(0,112,191);stroke-width:2.0">
    <g transform="translate(144.0,-52.0)">
     <line x1="0" y1="0" x2="9.0" y2="-27.0"/>
    </g>
    <g transform="translate(144.0,-52.0)">
     <line x1="0" y1="0" x2="-9.0" y2="-27.0"/>
    </g>
   </g>
   <g style="stroke:rgb(102,178,104);fill:rgb(175,244,175);stroke-width:2.5">
    <g transform="translate(144.0,-52.0)">
     <path d="M 13.999993000000583 -1.3999997666674889e-2 A 14.0 14.0 0 1 0 14.0 0.0"/>
    </g>
   </g>
   <g style="stroke:rgb(204,0,0);fill:rgb(204,0,0);text-anchor:middle;font-family:Arial;font-size:17.5px">
    <g transform="translate(144.0,-58.0)">
     <g transform="scale(1 -1)">
      <text>1</text>
     </g>
    </g>
   </g>
   <g style="stroke:rgb(153,153,153);fill:rgb(153,153,153);stroke-width:1.5">
    <polygon points="151.0,-83.0 151.0,-77.0 157.0,-77.0 157.0,-83.0"/>
   </g>
   <g style="stroke:rgb(102,178,104);fill:rgb(175,244,175);stroke-width:1.5">
    <polygon points="150.0,-82.0 150.0,-76.0 156.0,-76.0 156.0,-82.0"/>
   </g>
   <g style="stroke:rgb(153,153,153);fill:rgb(153,153,153);stroke-width:1.5">
    <polygon points="133.0,-83.0 133.0,-77.0 139.0,-77.0 139.0,-83.0"/>
   </g>
   <g style="stroke:rgb(102,178,104);fill:rgb(175,244,175);stroke-width:1.5">
    <polygon points="132.0,-82.0 132.0,-76.0 138.0,-76.0 138.0,-82.0"/>
   </g>
   <g style="stroke:rgb(153,153,153);fill:rgb(153,153,153)">
    <g transform="translate(79.625,-54.0)">
     <path d="M 13.999993000000583 -1.3999997666674889e-2 A 14.0 14.0 0 1 0 14.0 0.0"/>
    </g>
   </g>
   <g style="stroke:rgb(0,112,191);stroke-width:2.0">
    <g transform="translate(77.625,-52.0)">
     <line x1="0" y1="0" x2="30.375" y2="-38.0"/>
    </g>
    <g transform="translate(77.625,-52.0)">
     <line x1="0" y1="0" x2="-30.375" y2="-38.0"/>
    </g>
   </g>
   <g style="stroke:rgb(102,178,104);fill:rgb(175,244,175);stroke-width:2.5">
    <g transform="translate(77.625,-52.0)">
     <path d="M 13.999993000000583 -1.3999997666674889e-2 A 14.0 14.0 0 1 0 14.0 0.0"/>
    </g>
   </g>
   <g style="stroke:rgb(204,0,0);fill:rgb(204,0,0);text-anchor:middle;font-family:Arial;font-size:17.5px">
    <g transform="translate(77.625,-58.0)">
     <g transform="scale(1 -1)">
      <text>2</text>
     </g>
    </g>
   </g>
   <g style="stroke:rgb(153,153,153);fill:rgb(153,153,153)">
    <g transform="translate(110.0,-92.0)">
     <path d="M 13.999993000000583 -1.3999997666674889e-2 A 14.0 14.0 0 1 0 14.0 0.0"/>
    </g>
   </g>
   <g style="stroke:rgb(0,112,191);stroke-width:2.0">
    <g transform="translate(108.0,-90.0)">
     <line x1="0" y1="0" x2="9.0" y2="-27.0"/>
    </g>
    <g transform="translate(108.0,-90.0)">
     <line x1="0" y1="0" x2="-9.0" y2="-27.0"/>
    </g>
   </g>
   <g style="stroke:rgb(102,178,104);fill:rgb(175,244,175);stroke-width:2.5">
    <g transform="translate(108.0,-90.0)">
     <path d="M 13.999993000000583 -1.3999997666674889e-2 A 14.0 14.0 0 1 0 14.0 0.0"/>
    </g>
   </g>
   <g style="stroke:rgb(204,0,0);fill:rgb(204,0,0);text-anchor:middle;font-family:Arial;font-size:17.5px">
    <g transform="translate(108.0,-96.0)">
     <g transform="scale(1 -1)">
      <text>2</text>
     </g>
    </g>
   </g>
   <g style="stroke:rgb(153,153,153);fill:rgb(153,153,153);stroke-width:1.5">
    <polygon points="115.0,-121.0 115.0,-115.0 121.0,-115.0 121.0,-121.0"/>
   </g>
   <g style="stroke:rgb(102,178,104);fill:rgb(175,244,175);stroke-width:1.5">
    <polygon points="114.0,-120.0 114.0,-114.0 120.0,-114.0 120.0,-120.0"/>
   </g>
   <g style="stroke:rgb(153,153,153);fill:rgb(153,153,153);stroke-width:1.5">
    <polygon points="97.0,-121.0 97.0,-115.0 103.0,-115.0 103.0,-121.0"/>
   </g>
   <g style="stroke:rgb(102,178,104);fill:rgb(175,244,175);stroke-width:1.5">
    <polygon points="96.0,-120.0 96.0,-114.0 102.0,-114.0 102.0,-120.0"/>
   </g>
   <g style="stroke:rgb(153,153,153);fill:rgb(153,153,153)">
    <g transform="translate(49.25,-92.0)">
     <path d="M 13.999993000000583 -1.3999997666674889e-2 A 14.0 14.0 0 1 0 14.0 0.0"/>
    </g>
   </g>
   <g style="stroke:rgb(0,112,191);stroke-width:2.0">
    <g transform="translate(47.25,-90.0)">
     <line x1="0" y1="0" x2="24.75" y2="-38.0"/>
    </g>
    <g transform="translate(47.25,-90.0)">
     <line x1="0" y1="0" x2="-24.75" y2="-38.0"/>
    </g>
   </g>
   <g style="stroke:rgb(102,178,104);fill:rgb(175,244,175);stroke-width:2.5">
    <g transform="translate(47.25,-90.0)">
     <path d="M 13.999993000000583 -1.3999997666674889e-2 A 14.0 14.0 0 1 0 14.0 0.0"/>
    </g>
   </g>
   <g style="stroke:rgb(204,0,0);fill:rgb(204,0,0);text-anchor:middle;font-family:Arial;font-size:17.5px">
    <g transform="translate(47.25,-96.0)">
     <g transform="scale(1 -1)">
      <text>3</text>
     </g>
    </g>
   </g>
   <g style="stroke:rgb(153,153,153);fill:rgb(153,153,153)">
    <g transform="translate(74.0,-130.0)">
     <path d="M 13.999993000000583 -1.3999997666674889e-2 A 14.0 14.0 0 1 0 14.0 0.0"/>
    </g>
   </g>
   <g style="stroke:rgb(0,112,191);stroke-width:2.0">
    <g transform="translate(72.0,-128.0)">
     <line x1="0" y1="0" x2="9.0" y2="-27.0"/>
    </g>
    <g transform="translate(72.0,-128.0)">
     <line x1="0" y1="0" x2="-9.0" y2="-27.0"/>
    </g>
   </g>
   <g style="stroke:rgb(102,178,104);fill:rgb(175,244,175);stroke-width:2.5">
    <g transform="translate(72.0,-128.0)">
     <path d="M 13.999993000000583 -1.3999997666674889e-2 A 14.0 14.0 0 1 0 14.0 0.0"/>
    </g>
   </g>
   <g style="stroke:rgb(204,0,0);fill:rgb(204,0,0);text-anchor:middle;font-family:Arial;font-size:17.5px">
    <g transform="translate(72.0,-134.0)">
     <g transform="scale(1 -1)">
      <text>5</text>
     </g>
    </g>
   </g>
   <g style="stroke:rgb(153,153,153);fill:rgb(153,153,153);stroke-width:1.5">
    <polygon points="79.0,-159.0 79.0,-153.0 85.0,-153.0 85.0,-159.0"/>
   </g>
   <g style="stroke:rgb(102,178,104);fill:rgb(175,244,175);stroke-width:1.5">
    <polygon points="78.0,-158.0 78.0,-152.0 84.0,-152.0 84.0,-158.0"/>
   </g>
   <g style="stroke:rgb(153,153,153);fill:rgb(153,153,153);stroke-width:1.5">
    <polygon points="61.0,-159.0 61.0,-153.0 67.0,-153.0 67.0,-159.0"/>
   </g>
   <g style="stroke:rgb(102,178,104);fill:rgb(175,244,175);stroke-width:1.5">
    <polygon points="60.0,-158.0 60.0,-152.0 66.0,-152.0 66.0,-158.0"/>
   </g>
   <g style="stroke:rgb(153,153,153);fill:rgb(153,153,153)">
    <g transform="translate(24.5,-130.0)">
     <path d="M 13.999993000000583 -1.3999997666674889e-2 A 14.0 14.0 0 1 0 14.0 0.0"/>
    </g>
   </g>
   <g style="stroke:rgb(0,112,191);stroke-width:2.0">
    <g transform="translate(22.5,-128.0)">
     <line x1="0" y1="0" x2="13.5" y2="-38.0"/>
    </g>
    <g transform="translate(22.5,-128.0)">
     <line x1="0" y1="0" x2="-13.5" y2="-27.0"/>
    </g>
   </g>
   <g style="stroke:rgb(102,178,104);fill:rgb(175,244,175);stroke-width:2.5">
    <g transform="translate(22.5,-128.0)">
     <path d="M 13.999993000000583 -1.3999997666674889e-2 A 14.0 14.0 0 1 0 14.0 0.0"/>
    </g>
   </g>
   <g style="stroke:rgb(204,0,0);fill:rgb(204,0,0);text-anchor:middle;font-family:Arial;font-size:17.5px">
    <g transform="translate(22.5,-134.0)">
     <g transform="scale(1 -1)">
      <text>4</text>
     </g>
    </g>
   </g>
   <g style="stroke:rgb(153,153,153);fill:rgb(153,153,153)">
    <g transform="translate(38.0,-168.0)">
     <path d="M 13.999993000000583 -1.3999997666674889e-2 A 14.0 14.0 0 1 0 14.0 0.0"/>
    </g>
   </g>
   <g style="stroke:rgb(0,112,191);stroke-width:2.0">
    <g transform="translate(36.0,-166.0)">
     <line x1="0" y1="0" x2="9.0" y2="-27.0"/>
    </g>
    <g transform="translate(36.0,-166.0)">
     <line x1="0" y1="0" x2="-9.0" y2="-27.0"/>
    </g>
   </g>
   <g style="stroke:rgb(102,178,104);fill:rgb(175,244,175);stroke-width:2.5">
    <g transform="translate(36.0,-166.0)">
     <path d="M 13.999993000000583 -1.3999997666674889e-2 A 14.0 14.0 0 1 0 14.0 0.0"/>
    </g>
   </g>
   <g style="stroke:rgb(204,0,0);fill:rgb(204,0,0);text-anchor:middle;font-family:Arial;font-size:17.5px">
    <g transform="translate(36.0,-172.0)">
     <g transform="scale(1 -1)">
      <text>6</text>
     </g>
    </g>
   </g>
   <g style="stroke:rgb(153,153,153);fill:rgb(153,153,153);stroke-width:1.5">
    <polygon points="43.0,-197.0 43.0,-191.0 49.0,-191.0 49.0,-197.0"/>
   </g>
   <g style="stroke:rgb(102,178,104);fill:rgb(175,244,175);stroke-width:1.5">
    <polygon points="42.0,-196.0 42.0,-190.0 48.0,-190.0 48.0,-196.0"/>
   </g>
   <g style="stroke:rgb(153,153,153);fill:rgb(153,153,153);stroke-width:1.5">
    <polygon points="25.0,-197.0 25.0,-191.0 31.0,-191.0 31.0,-197.0"/>
   </g>
   <g style="stroke:rgb(102,178,104);fill:rgb(175,244,175);stroke-width:1.5">
    <polygon points="24.0,-196.0 24.0,-190.0 30.0,-190.0 30.0,-196.0"/>
   </g>
   <g style="stroke:rgb(153,153,153);fill:rgb(153,153,153);stroke-width:1.5">
    <polygon points="7.0,-159.0 7.0,-153.0 13.0,-153.0 13.0,-159.0"/>
   </g>
   <g style="stroke:rgb(102,178,104);fill:rgb(175,244,175);stroke-width:1.5">
    <polygon points="6.0,-158.0 6.0,-152.0 12.0,-152.0 12.0,-158.0"/>
   </g>
  </g>
 </g>
</g>
</svg>